<svg width="122" height="54" viewBox="0 0 122 54" fill="none" xmlns="http://www.w3.org/2000/svg">
<path d="M14.4627 39.6249L11.4018 50.0393H10.3902L7.73137 41.1573L5.05957 50.0393H4.06089L1 39.6249H1.98571L4.60563 48.5813L7.31633 39.6249H8.21126L10.8831 48.6259L13.5419 39.6249H14.4627Z" fill="white"/>
<path d="M21.7082 46.4538H16.0015C16.0534 47.2671 16.3257 47.9267 16.8186 48.4325C17.3115 48.9284 17.934 49.1764 18.6863 49.1764C19.1099 49.1764 19.499 49.0921 19.8535 48.9235C20.2081 48.745 20.515 48.4871 20.7744 48.1498L21.2932 48.8342C20.9906 49.2508 20.6101 49.5682 20.1519 49.7864C19.7022 50.0046 19.2051 50.1137 18.6603 50.1137C17.9599 50.1137 17.3374 49.9451 16.7927 49.6079C16.2566 49.2607 15.8372 48.7846 15.5346 48.1796C15.2319 47.5746 15.0806 46.8902 15.0806 46.1265C15.0806 45.3627 15.2233 44.6784 15.5086 44.0733C15.8026 43.4683 16.2004 42.9972 16.7019 42.6599C17.212 42.3227 17.7827 42.1541 18.4139 42.1541C19.0451 42.1541 19.6114 42.3227 20.1129 42.6599C20.6144 42.9972 21.0079 43.4683 21.2932 44.0733C21.5785 44.6684 21.7212 45.3528 21.7212 46.1265L21.7082 46.4538ZM18.4139 43.0616C17.7568 43.0616 17.2034 43.3046 16.7537 43.7906C16.3128 44.2667 16.062 44.8916 16.0015 45.6652H20.8393C20.7787 44.8916 20.5237 44.2667 20.074 43.7906C19.6331 43.3046 19.0797 43.0616 18.4139 43.0616Z" fill="white"/>
<path d="M33.7344 39V50.0393H32.8524V48.492C32.5757 49.0177 32.2082 49.4194 31.75 49.6971C31.3004 49.9748 30.7902 50.1137 30.2195 50.1137C29.5797 50.1137 29.0004 49.9451 28.4816 49.6079C27.9628 49.2706 27.5564 48.7995 27.2624 48.1945C26.9684 47.5894 26.8214 46.9001 26.8214 46.1265C26.8214 45.3528 26.9684 44.6635 27.2624 44.0584C27.5564 43.4534 27.9628 42.9872 28.4816 42.6599C29.0004 42.3227 29.5797 42.1541 30.2195 42.1541C30.7729 42.1541 31.2701 42.288 31.7111 42.5558C32.1607 42.8137 32.5282 43.1955 32.8135 43.7014V39H33.7344ZM30.2973 49.1764C30.7729 49.1764 31.2009 49.0524 31.5814 48.8045C31.9705 48.5466 32.2731 48.1846 32.4893 47.7184C32.7141 47.2522 32.8265 46.7216 32.8265 46.1265C32.8265 45.5313 32.7141 45.0007 32.4893 44.5345C32.2731 44.0684 31.9705 43.7113 31.5814 43.4633C31.2009 43.2055 30.7729 43.0765 30.2973 43.0765C29.8131 43.0765 29.3765 43.2055 28.9874 43.4633C28.6069 43.7113 28.3043 44.0684 28.0795 44.5345C27.8633 45.0007 27.7552 45.5313 27.7552 46.1265C27.7552 46.7216 27.8633 47.2522 28.0795 47.7184C28.3043 48.1846 28.6069 48.5466 28.9874 48.8045C29.3765 49.0524 29.8131 49.1764 30.2973 49.1764Z" fill="white"/>
<path d="M42.4986 46.4538H36.7918C36.8437 47.2671 37.1161 47.9267 37.6089 48.4325C38.1018 48.9284 38.7243 49.1764 39.4766 49.1764C39.9003 49.1764 40.2894 49.0921 40.6439 48.9235C40.9984 48.745 41.3053 48.4871 41.5647 48.1498L42.0835 48.8342C41.7809 49.2508 41.4004 49.5682 40.9422 49.7864C40.4926 50.0046 39.9954 50.1137 39.4506 50.1137C38.7503 50.1137 38.1277 49.9451 37.583 49.6079C37.0469 49.2607 36.6275 48.7846 36.3249 48.1796C36.0223 47.5746 35.871 46.8902 35.871 46.1265C35.871 45.3627 36.0136 44.6784 36.299 44.0733C36.5929 43.4683 36.9907 42.9972 37.4922 42.6599C38.0023 42.3227 38.573 42.1541 39.2042 42.1541C39.8354 42.1541 40.4018 42.3227 40.9033 42.6599C41.4048 42.9972 41.7982 43.4683 42.0835 44.0733C42.3689 44.6684 42.5115 45.3528 42.5115 46.1265L42.4986 46.4538ZM39.2042 43.0616C38.5471 43.0616 37.9937 43.3046 37.5441 43.7906C37.1031 44.2667 36.8523 44.8916 36.7918 45.6652H41.6296C41.5691 44.8916 41.314 44.2667 40.8644 43.7906C40.4234 43.3046 39.87 43.0616 39.2042 43.0616Z" fill="white"/>
<path d="M44.6453 39H45.5661V50.0393H44.6453V39Z" fill="white"/>
<path d="M48.3878 42.2136H49.3087V50.0393H48.3878V42.2136ZM48.8547 40.5027C48.6645 40.5027 48.5045 40.4283 48.3748 40.2795C48.2451 40.1307 48.1803 39.9522 48.1803 39.7439C48.1803 39.5455 48.2451 39.3719 48.3748 39.2232C48.5045 39.0744 48.6645 39 48.8547 39C49.0449 39 49.2049 39.0744 49.3346 39.2232C49.4643 39.362 49.5292 39.5306 49.5292 39.729C49.5292 39.9472 49.4643 40.1307 49.3346 40.2795C49.2049 40.4283 49.0449 40.5027 48.8547 40.5027Z" fill="white"/>
<path d="M57.863 42.2136L54.8281 50.0393H53.8813L50.8593 42.2136H51.819L54.3741 48.8789L56.9551 42.2136H57.863Z" fill="white"/>
<path d="M65.1695 46.4538H59.4628C59.5146 47.2671 59.787 47.9267 60.2799 48.4325C60.7727 48.9284 61.3953 49.1764 62.1475 49.1764C62.5712 49.1764 62.9603 49.0921 63.3148 48.9235C63.6693 48.745 63.9763 48.4871 64.2357 48.1498L64.7545 48.8342C64.4518 49.2508 64.0714 49.5682 63.6131 49.7864C63.1635 50.0046 62.6663 50.1137 62.1216 50.1137C61.4212 50.1137 60.7987 49.9451 60.2539 49.6079C59.7178 49.2607 59.2985 48.7846 58.9958 48.1796C58.6932 47.5746 58.5419 46.8902 58.5419 46.1265C58.5419 45.3627 58.6846 44.6784 58.9699 44.0733C59.2639 43.4683 59.6616 42.9972 60.1631 42.6599C60.6733 42.3227 61.244 42.1541 61.8752 42.1541C62.5064 42.1541 63.0727 42.3227 63.5742 42.6599C64.0757 42.9972 64.4691 43.4683 64.7545 44.0733C65.0398 44.6684 65.1825 45.3528 65.1825 46.1265L65.1695 46.4538ZM61.8752 43.0616C61.218 43.0616 60.6646 43.3046 60.215 43.7906C59.774 44.2667 59.5233 44.8916 59.4628 45.6652H64.3005C64.24 44.8916 63.9849 44.2667 63.5353 43.7906C63.0943 43.3046 62.541 43.0616 61.8752 43.0616Z" fill="white"/>
<path d="M68.1982 43.746C68.4143 43.2203 68.7343 42.8236 69.158 42.5558C69.5903 42.288 70.122 42.1541 70.7532 42.1541V43.1807L70.5328 43.1658C69.8151 43.1658 69.2531 43.4187 68.8467 43.9245C68.4403 44.4304 68.2371 45.1396 68.2371 46.0521V50.0393H67.3162V42.2136H68.1982V43.746Z" fill="white"/>
<path d="M82.6607 42.2136V52.9256H81.7399V48.5664C81.4545 49.0723 81.087 49.4591 80.6374 49.7269C80.1964 49.9848 79.6993 50.1137 79.1459 50.1137C78.4974 50.1137 77.9137 49.9501 77.3949 49.6227C76.8848 49.2855 76.4827 48.8144 76.1887 48.2094C75.8948 47.6043 75.7478 46.91 75.7478 46.1265C75.7478 45.3528 75.8948 44.6635 76.1887 44.0584C76.4827 43.4534 76.8891 42.9872 77.4079 42.6599C77.9267 42.3227 78.506 42.1541 79.1459 42.1541C79.7166 42.1541 80.2267 42.293 80.6763 42.5707C81.1346 42.8484 81.5021 43.2451 81.7788 43.7609V42.2136H82.6607ZM79.2237 49.1764C79.6993 49.1764 80.1273 49.0524 80.5077 48.8045C80.8968 48.5466 81.1994 48.1846 81.4156 47.7184C81.6404 47.2522 81.7528 46.7216 81.7528 46.1265C81.7528 45.5313 81.6404 45.0057 81.4156 44.5494C81.1994 44.0832 80.8968 43.7212 80.5077 43.4633C80.1273 43.2055 79.6993 43.0765 79.2237 43.0765C78.7395 43.0765 78.3028 43.2055 77.9137 43.4633C77.5333 43.7212 77.2307 44.0832 77.0058 44.5494C76.7897 45.0057 76.6816 45.5313 76.6816 46.1265C76.6816 46.7216 76.7897 47.2522 77.0058 47.7184C77.2307 48.1846 77.5333 48.5466 77.9137 48.8045C78.3028 49.0524 78.7395 49.1764 79.2237 49.1764Z" fill="white"/>
<path d="M91.6324 42.2136V50.0393H90.7505V48.6111C90.5084 49.0871 90.1755 49.4591 89.7518 49.7269C89.3281 49.9848 88.8439 50.1137 88.2992 50.1137C87.4086 50.1137 86.7039 49.831 86.1851 49.2657C85.6749 48.6904 85.4199 47.8523 85.4199 46.7513V42.2136H86.3407V46.6472C86.3407 47.4704 86.518 48.0953 86.8725 48.5218C87.227 48.9483 87.7328 49.1615 88.39 49.1615C89.1076 49.1615 89.674 48.9136 90.089 48.4176C90.5041 47.9118 90.7116 47.2125 90.7116 46.3199V42.2136H91.6324Z" fill="white"/>
<path d="M96.8574 42.1541C97.748 42.1541 98.431 42.412 98.9066 42.9277C99.3822 43.4336 99.62 44.1874 99.62 45.1892V50.0393H98.738V48.8193C98.5305 49.226 98.2235 49.5434 97.8171 49.7715C97.4194 49.9996 96.9438 50.1137 96.3905 50.1137C95.6296 50.1137 95.0243 49.9054 94.5747 49.4888C94.125 49.0723 93.9002 48.5218 93.9002 47.8374C93.9002 47.1729 94.1077 46.6373 94.5228 46.2306C94.9465 45.8239 95.6166 45.6206 96.5331 45.6206H98.6991V45.1445C98.6991 44.4701 98.5348 43.9593 98.2062 43.6121C97.8777 43.255 97.3978 43.0765 96.7666 43.0765C96.3343 43.0765 95.9192 43.1608 95.5215 43.3294C95.1237 43.4881 94.7822 43.7113 94.4968 43.9989L94.0818 43.2104C94.4277 42.8732 94.8427 42.6153 95.3269 42.4368C95.8111 42.2483 96.3213 42.1541 96.8574 42.1541ZM96.5331 49.2806C97.0519 49.2806 97.4972 49.1467 97.869 48.8789C98.2408 48.6011 98.5175 48.2044 98.6991 47.6886V46.4091H96.5591C95.3918 46.4091 94.8081 46.8753 94.8081 47.8077C94.8081 48.2639 94.9594 48.6259 95.2621 48.8937C95.5647 49.1516 95.9884 49.2806 96.5331 49.2806Z" fill="white"/>
<path d="M102.381 39H103.301V50.0393H102.381V39Z" fill="white"/>
<path d="M106.123 42.2136H107.044V50.0393H106.123V42.2136ZM106.59 40.5027C106.4 40.5027 106.24 40.4283 106.11 40.2795C105.98 40.1307 105.916 39.9522 105.916 39.7439C105.916 39.5455 105.98 39.3719 106.11 39.2232C106.24 39.0744 106.4 39 106.59 39C106.78 39 106.94 39.0744 107.07 39.2232C107.2 39.362 107.264 39.5306 107.264 39.729C107.264 39.9472 107.2 40.1307 107.07 40.2795C106.94 40.4283 106.78 40.5027 106.59 40.5027Z" fill="white"/>
<path d="M113.458 49.5632C113.285 49.7418 113.069 49.8806 112.81 49.9798C112.559 50.0691 112.295 50.1137 112.019 50.1137C111.379 50.1137 110.886 49.9153 110.54 49.5186C110.194 49.1219 110.021 48.5615 110.021 47.8374V43.1063H108.802V42.2136H110.021V40.5027H110.942V42.2136H113.017V43.1063H110.942V47.7779C110.942 48.2441 111.041 48.6011 111.24 48.8491C111.448 49.0871 111.742 49.2062 112.122 49.2062C112.313 49.2062 112.494 49.1714 112.667 49.102C112.849 49.0326 113.004 48.9334 113.134 48.8045L113.458 49.5632Z" fill="white"/>
<path d="M121 42.2136L117.589 50.9766C117.312 51.7106 116.992 52.2313 116.629 52.5388C116.266 52.8463 115.829 53 115.319 53C114.991 53 114.684 52.9405 114.398 52.8215C114.113 52.7024 113.867 52.5239 113.659 52.2859L114.087 51.4973C114.433 51.8941 114.848 52.0925 115.332 52.0925C115.643 52.0925 115.907 51.9933 116.123 51.7949C116.348 51.5965 116.556 51.2593 116.746 50.7832L117.044 50.0244L113.996 42.2136H114.956L117.524 48.864L120.092 42.2136H121Z" fill="white"/>
<path d="M14.4627 39.6249L11.4018 50.0393H10.3902L7.73137 41.1573L5.05957 50.0393H4.06089L1 39.6249H1.98571L4.60563 48.5813L7.31633 39.6249H8.21126L10.8831 48.6259L13.5419 39.6249H14.4627Z" stroke="white" stroke-width="0.5"/>
<path d="M21.7082 46.4538H16.0015C16.0534 47.2671 16.3257 47.9267 16.8186 48.4325C17.3115 48.9284 17.934 49.1764 18.6863 49.1764C19.1099 49.1764 19.499 49.0921 19.8535 48.9235C20.2081 48.745 20.515 48.4871 20.7744 48.1498L21.2932 48.8342C20.9906 49.2508 20.6101 49.5682 20.1519 49.7864C19.7022 50.0046 19.2051 50.1137 18.6603 50.1137C17.9599 50.1137 17.3374 49.9451 16.7927 49.6079C16.2566 49.2607 15.8372 48.7846 15.5346 48.1796C15.2319 47.5746 15.0806 46.8902 15.0806 46.1265C15.0806 45.3627 15.2233 44.6784 15.5086 44.0733C15.8026 43.4683 16.2004 42.9972 16.7019 42.6599C17.212 42.3227 17.7827 42.1541 18.4139 42.1541C19.0451 42.1541 19.6114 42.3227 20.1129 42.6599C20.6144 42.9972 21.0079 43.4683 21.2932 44.0733C21.5785 44.6684 21.7212 45.3528 21.7212 46.1265L21.7082 46.4538ZM18.4139 43.0616C17.7568 43.0616 17.2034 43.3046 16.7537 43.7906C16.3128 44.2667 16.062 44.8916 16.0015 45.6652H20.8393C20.7787 44.8916 20.5237 44.2667 20.074 43.7906C19.6331 43.3046 19.0797 43.0616 18.4139 43.0616Z" stroke="white" stroke-width="0.5"/>
<path d="M33.7344 39V50.0393H32.8524V48.492C32.5757 49.0177 32.2082 49.4194 31.75 49.6971C31.3004 49.9748 30.7902 50.1137 30.2195 50.1137C29.5797 50.1137 29.0004 49.9451 28.4816 49.6079C27.9628 49.2706 27.5564 48.7995 27.2624 48.1945C26.9684 47.5894 26.8214 46.9001 26.8214 46.1265C26.8214 45.3528 26.9684 44.6635 27.2624 44.0584C27.5564 43.4534 27.9628 42.9872 28.4816 42.6599C29.0004 42.3227 29.5797 42.1541 30.2195 42.1541C30.7729 42.1541 31.2701 42.288 31.7111 42.5558C32.1607 42.8137 32.5282 43.1955 32.8135 43.7014V39H33.7344ZM30.2973 49.1764C30.7729 49.1764 31.2009 49.0524 31.5814 48.8045C31.9705 48.5466 32.2731 48.1846 32.4893 47.7184C32.7141 47.2522 32.8265 46.7216 32.8265 46.1265C32.8265 45.5313 32.7141 45.0007 32.4893 44.5345C32.2731 44.0684 31.9705 43.7113 31.5814 43.4633C31.2009 43.2055 30.7729 43.0765 30.2973 43.0765C29.8131 43.0765 29.3765 43.2055 28.9874 43.4633C28.6069 43.7113 28.3043 44.0684 28.0795 44.5345C27.8633 45.0007 27.7552 45.5313 27.7552 46.1265C27.7552 46.7216 27.8633 47.2522 28.0795 47.7184C28.3043 48.1846 28.6069 48.5466 28.9874 48.8045C29.3765 49.0524 29.8131 49.1764 30.2973 49.1764Z" stroke="white" stroke-width="0.5"/>
<path d="M42.4986 46.4538H36.7918C36.8437 47.2671 37.1161 47.9267 37.6089 48.4325C38.1018 48.9284 38.7243 49.1764 39.4766 49.1764C39.9003 49.1764 40.2894 49.0921 40.6439 48.9235C40.9984 48.745 41.3053 48.4871 41.5647 48.1498L42.0835 48.8342C41.7809 49.2508 41.4004 49.5682 40.9422 49.7864C40.4926 50.0046 39.9954 50.1137 39.4506 50.1137C38.7503 50.1137 38.1277 49.9451 37.583 49.6079C37.0469 49.2607 36.6275 48.7846 36.3249 48.1796C36.0223 47.5746 35.871 46.8902 35.871 46.1265C35.871 45.3627 36.0136 44.6784 36.299 44.0733C36.5929 43.4683 36.9907 42.9972 37.4922 42.6599C38.0023 42.3227 38.573 42.1541 39.2042 42.1541C39.8354 42.1541 40.4018 42.3227 40.9033 42.6599C41.4048 42.9972 41.7982 43.4683 42.0835 44.0733C42.3689 44.6684 42.5115 45.3528 42.5115 46.1265L42.4986 46.4538ZM39.2042 43.0616C38.5471 43.0616 37.9937 43.3046 37.5441 43.7906C37.1031 44.2667 36.8523 44.8916 36.7918 45.6652H41.6296C41.5691 44.8916 41.314 44.2667 40.8644 43.7906C40.4234 43.3046 39.87 43.0616 39.2042 43.0616Z" stroke="white" stroke-width="0.5"/>
<path d="M44.6453 39H45.5661V50.0393H44.6453V39Z" stroke="white" stroke-width="0.5"/>
<path d="M48.3878 42.2136H49.3087V50.0393H48.3878V42.2136ZM48.8547 40.5027C48.6645 40.5027 48.5045 40.4283 48.3748 40.2795C48.2451 40.1307 48.1803 39.9522 48.1803 39.7439C48.1803 39.5455 48.2451 39.3719 48.3748 39.2232C48.5045 39.0744 48.6645 39 48.8547 39C49.0449 39 49.2049 39.0744 49.3346 39.2232C49.4643 39.362 49.5292 39.5306 49.5292 39.729C49.5292 39.9472 49.4643 40.1307 49.3346 40.2795C49.2049 40.4283 49.0449 40.5027 48.8547 40.5027Z" stroke="white" stroke-width="0.5"/>
<path d="M57.863 42.2136L54.8281 50.0393H53.8813L50.8593 42.2136H51.819L54.3741 48.8789L56.9551 42.2136H57.863Z" stroke="white" stroke-width="0.5"/>
<path d="M65.1695 46.4538H59.4628C59.5146 47.2671 59.787 47.9267 60.2799 48.4325C60.7727 48.9284 61.3953 49.1764 62.1475 49.1764C62.5712 49.1764 62.9603 49.0921 63.3148 48.9235C63.6693 48.745 63.9763 48.4871 64.2357 48.1498L64.7545 48.8342C64.4518 49.2508 64.0714 49.5682 63.6131 49.7864C63.1635 50.0046 62.6663 50.1137 62.1216 50.1137C61.4212 50.1137 60.7987 49.9451 60.2539 49.6079C59.7178 49.2607 59.2985 48.7846 58.9958 48.1796C58.6932 47.5746 58.5419 46.8902 58.5419 46.1265C58.5419 45.3627 58.6846 44.6784 58.9699 44.0733C59.2639 43.4683 59.6616 42.9972 60.1631 42.6599C60.6733 42.3227 61.244 42.1541 61.8752 42.1541C62.5064 42.1541 63.0727 42.3227 63.5742 42.6599C64.0757 42.9972 64.4691 43.4683 64.7545 44.0733C65.0398 44.6684 65.1825 45.3528 65.1825 46.1265L65.1695 46.4538ZM61.8752 43.0616C61.218 43.0616 60.6646 43.3046 60.215 43.7906C59.774 44.2667 59.5233 44.8916 59.4628 45.6652H64.3005C64.24 44.8916 63.9849 44.2667 63.5353 43.7906C63.0943 43.3046 62.541 43.0616 61.8752 43.0616Z" stroke="white" stroke-width="0.5"/>
<path d="M68.1982 43.746C68.4143 43.2203 68.7343 42.8236 69.158 42.5558C69.5903 42.288 70.122 42.1541 70.7532 42.1541V43.1807L70.5328 43.1658C69.8151 43.1658 69.2531 43.4187 68.8467 43.9245C68.4403 44.4304 68.2371 45.1396 68.2371 46.0521V50.0393H67.3162V42.2136H68.1982V43.746Z" stroke="white" stroke-width="0.5"/>
<path d="M82.6607 42.2136V52.9256H81.7399V48.5664C81.4545 49.0723 81.087 49.4591 80.6374 49.7269C80.1964 49.9848 79.6993 50.1137 79.1459 50.1137C78.4974 50.1137 77.9137 49.9501 77.3949 49.6227C76.8848 49.2855 76.4827 48.8144 76.1887 48.2094C75.8948 47.6043 75.7478 46.91 75.7478 46.1265C75.7478 45.3528 75.8948 44.6635 76.1887 44.0584C76.4827 43.4534 76.8891 42.9872 77.4079 42.6599C77.9267 42.3227 78.506 42.1541 79.1459 42.1541C79.7166 42.1541 80.2267 42.293 80.6763 42.5707C81.1346 42.8484 81.5021 43.2451 81.7788 43.7609V42.2136H82.6607ZM79.2237 49.1764C79.6993 49.1764 80.1273 49.0524 80.5077 48.8045C80.8968 48.5466 81.1994 48.1846 81.4156 47.7184C81.6404 47.2522 81.7528 46.7216 81.7528 46.1265C81.7528 45.5313 81.6404 45.0057 81.4156 44.5494C81.1994 44.0832 80.8968 43.7212 80.5077 43.4633C80.1273 43.2055 79.6993 43.0765 79.2237 43.0765C78.7395 43.0765 78.3028 43.2055 77.9137 43.4633C77.5333 43.7212 77.2307 44.0832 77.0058 44.5494C76.7897 45.0057 76.6816 45.5313 76.6816 46.1265C76.6816 46.7216 76.7897 47.2522 77.0058 47.7184C77.2307 48.1846 77.5333 48.5466 77.9137 48.8045C78.3028 49.0524 78.7395 49.1764 79.2237 49.1764Z" stroke="white" stroke-width="0.5"/>
<path d="M91.6324 42.2136V50.0393H90.7505V48.6111C90.5084 49.0871 90.1755 49.4591 89.7518 49.7269C89.3281 49.9848 88.8439 50.1137 88.2992 50.1137C87.4086 50.1137 86.7039 49.831 86.1851 49.2657C85.6749 48.6904 85.4199 47.8523 85.4199 46.7513V42.2136H86.3407V46.6472C86.3407 47.4704 86.518 48.0953 86.8725 48.5218C87.227 48.9483 87.7328 49.1615 88.39 49.1615C89.1076 49.1615 89.674 48.9136 90.089 48.4176C90.5041 47.9118 90.7116 47.2125 90.7116 46.3199V42.2136H91.6324Z" stroke="white" stroke-width="0.5"/>
<path d="M96.8574 42.1541C97.748 42.1541 98.431 42.412 98.9066 42.9277C99.3822 43.4336 99.62 44.1874 99.62 45.1892V50.0393H98.738V48.8193C98.5305 49.226 98.2235 49.5434 97.8171 49.7715C97.4194 49.9996 96.9438 50.1137 96.3905 50.1137C95.6296 50.1137 95.0243 49.9054 94.5747 49.4888C94.125 49.0723 93.9002 48.5218 93.9002 47.8374C93.9002 47.1729 94.1077 46.6373 94.5228 46.2306C94.9465 45.8239 95.6166 45.6206 96.5331 45.6206H98.6991V45.1445C98.6991 44.4701 98.5348 43.9593 98.2062 43.6121C97.8777 43.255 97.3978 43.0765 96.7666 43.0765C96.3343 43.0765 95.9192 43.1608 95.5215 43.3294C95.1237 43.4881 94.7822 43.7113 94.4968 43.9989L94.0818 43.2104C94.4277 42.8732 94.8427 42.6153 95.3269 42.4368C95.8111 42.2483 96.3213 42.1541 96.8574 42.1541ZM96.5331 49.2806C97.0519 49.2806 97.4972 49.1467 97.869 48.8789C98.2408 48.6011 98.5175 48.2044 98.6991 47.6886V46.4091H96.5591C95.3918 46.4091 94.8081 46.8753 94.8081 47.8077C94.8081 48.2639 94.9594 48.6259 95.2621 48.8937C95.5647 49.1516 95.9884 49.2806 96.5331 49.2806Z" stroke="white" stroke-width="0.5"/>
<path d="M102.381 39H103.301V50.0393H102.381V39Z" stroke="white" stroke-width="0.5"/>
<path d="M106.123 42.2136H107.044V50.0393H106.123V42.2136ZM106.59 40.5027C106.4 40.5027 106.24 40.4283 106.11 40.2795C105.98 40.1307 105.916 39.9522 105.916 39.7439C105.916 39.5455 105.98 39.3719 106.11 39.2232C106.24 39.0744 106.4 39 106.59 39C106.78 39 106.94 39.0744 107.07 39.2232C107.2 39.362 107.264 39.5306 107.264 39.729C107.264 39.9472 107.2 40.1307 107.07 40.2795C106.94 40.4283 106.78 40.5027 106.59 40.5027Z" stroke="white" stroke-width="0.5"/>
<path d="M113.458 49.5632C113.285 49.7418 113.069 49.8806 112.81 49.9798C112.559 50.0691 112.295 50.1137 112.019 50.1137C111.379 50.1137 110.886 49.9153 110.54 49.5186C110.194 49.1219 110.021 48.5615 110.021 47.8374V43.1063H108.802V42.2136H110.021V40.5027H110.942V42.2136H113.017V43.1063H110.942V47.7779C110.942 48.2441 111.041 48.6011 111.24 48.8491C111.448 49.0871 111.742 49.2062 112.122 49.2062C112.313 49.2062 112.494 49.1714 112.667 49.102C112.849 49.0326 113.004 48.9334 113.134 48.8045L113.458 49.5632Z" stroke="white" stroke-width="0.5"/>
<path d="M121 42.2136L117.589 50.9766C117.312 51.7106 116.992 52.2313 116.629 52.5388C116.266 52.8463 115.829 53 115.319 53C114.991 53 114.684 52.9405 114.398 52.8215C114.113 52.7024 113.867 52.5239 113.659 52.2859L114.087 51.4973C114.433 51.8941 114.848 52.0925 115.332 52.0925C115.643 52.0925 115.907 51.9933 116.123 51.7949C116.348 51.5965 116.556 51.2593 116.746 50.7832L117.044 50.0244L113.996 42.2136H114.956L117.524 48.864L120.092 42.2136H121Z" stroke="white" stroke-width="0.5"/>
<path d="M10.7867 22.793H6.44712V31.667H1V7.42576H10.823C13.946 7.42576 16.3548 8.06398 18.0495 9.34042C19.7441 10.6169 20.5915 12.4205 20.5915 14.7514C20.5915 16.4052 20.1981 17.7871 19.4113 18.8971C18.6366 19.9959 17.4563 20.8728 15.8706 21.5276L21.5901 31.4339V31.667H15.7435L10.7867 22.793ZM6.44712 18.7472H10.8411C12.209 18.7472 13.2681 18.4309 14.0186 17.7982C14.7691 17.1544 15.1443 16.272 15.1443 15.151C15.1443 14.0077 14.7873 13.1087 14.0731 12.4538C13.371 11.799 12.2876 11.4715 10.823 11.4715H6.44712V18.7472Z" fill="white"/>
<path d="M33.4467 32C30.5657 32 28.2174 31.1897 26.4017 29.5692C24.5981 27.9487 23.6963 25.7898 23.6963 23.0927V22.6265C23.6963 20.8173 24.0776 19.2023 24.8402 17.7816C25.6028 16.3497 26.6801 15.2509 28.0722 14.485C29.4763 13.7081 31.0741 13.3196 32.8656 13.3196C35.5529 13.3196 37.6652 14.0965 39.2024 15.6505C40.7519 17.2044 41.5266 19.4076 41.5266 22.2602V24.2248H29.0163C29.1858 25.4014 29.6942 26.3448 30.5415 27.0552C31.401 27.7655 32.4843 28.1207 33.7916 28.1207C35.8131 28.1207 37.3928 27.4492 38.5306 26.1062L41.1089 28.7534C40.3221 29.7746 39.2569 30.5737 37.9133 31.1509C36.5697 31.717 35.0808 32 33.4467 32ZM32.8475 17.2155C31.8065 17.2155 30.9591 17.5374 30.3055 18.1812C29.6639 18.8249 29.2524 19.7462 29.0708 20.9449H36.3699V20.562C36.3457 19.4964 36.031 18.6751 35.4258 18.0979C34.8205 17.5096 33.9611 17.2155 32.8475 17.2155Z" fill="white"/>
<path d="M51.6219 25.7898L55.2714 13.6526H60.7549L54.1276 31.667H49.1162L42.4889 13.6526H47.9723L51.6219 25.7898Z" fill="white"/>
<path d="M71.867 32C68.9861 32 66.6378 31.1897 64.8221 29.5692C63.0185 27.9487 62.1167 25.7898 62.1167 23.0927V22.6265C62.1167 20.8173 62.498 19.2023 63.2606 17.7816C64.0232 16.3497 65.1005 15.2509 66.4925 14.485C67.8967 13.7081 69.4945 13.3196 71.286 13.3196C73.9732 13.3196 76.0855 14.0965 77.6228 15.6505C79.1722 17.2044 79.9469 19.4076 79.9469 22.2602V24.2248H67.4367C67.6061 25.4014 68.1145 26.3448 68.9619 27.0552C69.8213 27.7655 70.9047 28.1207 72.212 28.1207C74.2335 28.1207 75.8131 27.4492 76.951 26.1062L79.5293 28.7534C78.7425 29.7746 77.6773 30.5737 76.3336 31.1509C74.99 31.717 73.5011 32 71.867 32ZM71.2678 17.2155C70.2268 17.2155 69.3795 17.5374 68.7258 18.1812C68.0843 18.8249 67.6727 19.7462 67.4911 20.9449H74.7903V20.562C74.7661 19.4964 74.4514 18.6751 73.8461 18.0979C73.2409 17.5096 72.3814 17.2155 71.2678 17.2155Z" fill="white"/>
<path d="M87.8634 13.6526L88.0268 15.6671C89.4188 14.1021 91.3011 13.3196 93.6736 13.3196C96.2035 13.3196 97.9405 14.2353 98.8847 16.0667C100.265 14.2353 102.232 13.3196 104.786 13.3196C106.916 13.3196 108.502 13.8912 109.543 15.0344C110.584 16.1666 111.104 17.8759 111.104 20.1624V31.667H105.839V20.1791C105.839 19.1579 105.621 18.4142 105.185 17.9481C104.749 17.4708 103.981 17.2321 102.879 17.2321C101.306 17.2321 100.216 17.9203 99.611 19.2966L99.6291 31.667H94.3818V20.1957C94.3818 19.1524 94.1578 18.3976 93.7099 17.9314C93.2621 17.4652 92.4995 17.2321 91.4221 17.2321C89.9333 17.2321 88.856 17.7982 88.1902 18.9304V31.667H82.9428V13.6526H87.8634Z" fill="white"/>
<path d="M120.691 31.667H115.426V13.6526H120.691V31.667ZM115.117 8.99078C115.117 8.26932 115.377 7.6755 115.898 7.20932C116.43 6.74314 117.151 6.51005 118.059 6.51005C118.954 6.51005 119.668 6.74314 120.201 7.20932C120.734 7.6755 121 8.26932 121 8.99078C121 9.72335 120.728 10.3227 120.183 10.7889C119.65 11.2551 118.942 11.4882 118.059 11.4882C117.175 11.4882 116.461 11.2551 115.916 10.7889C115.383 10.3227 115.117 9.72335 115.117 8.99078Z" fill="white"/>
<path d="M65.3958 11.2535L63.0669 0L53.6759 7.55312L57.0289 8.61176L54.3438 16.6647L59.0675 17.989L62.1283 10.2218L65.3958 11.2535Z" fill="white"/>
</svg>
