<svg width="80" height="48" viewBox="0 0 80 48" fill="none" xmlns="http://www.w3.org/2000/svg">
<path d="M3.78531 45.7135L2.51826 43.3096C2.37572 43.331 2.2279 43.3417 2.0748 43.3417H0.586011V45.7135H0V38.2349H2.0748C2.78223 38.2349 3.33657 38.4628 3.7378 38.9186C4.13903 39.3745 4.33965 40.0012 4.33965 40.799C4.33965 41.383 4.22878 41.878 4.00705 42.284C3.79059 42.6829 3.47911 42.9713 3.0726 43.1494L4.42676 45.7135H3.78531ZM2.05896 42.6686C2.60801 42.6686 3.02772 42.5048 3.31809 42.1772C3.60845 41.8495 3.75364 41.3901 3.75364 40.799C3.75364 40.1935 3.60845 39.7306 3.31809 39.4101C3.02772 39.0824 2.60801 38.9186 2.05896 38.9186H0.586011V42.6686H2.05896Z" fill="black"/>
<path d="M9.23091 43.1387H5.74652C5.7782 43.7227 5.9445 44.1964 6.24542 44.5596C6.54634 44.9158 6.92646 45.0938 7.38577 45.0938C7.64445 45.0938 7.88203 45.0333 8.09848 44.9122C8.31494 44.784 8.50235 44.5988 8.66074 44.3566L8.9775 44.8481C8.79272 45.1472 8.56043 45.3752 8.28062 45.5319C8.00609 45.6886 7.70253 45.7669 7.36993 45.7669C6.9423 45.7669 6.56218 45.6458 6.22958 45.4037C5.90226 45.1544 5.64621 44.8125 5.46143 44.378C5.27665 43.9435 5.18427 43.4521 5.18427 42.9037C5.18427 42.3552 5.27138 41.8638 5.44559 41.4293C5.62509 40.9948 5.86794 40.6565 6.17415 40.4143C6.48563 40.1722 6.83407 40.0511 7.21947 40.0511C7.60486 40.0511 7.95066 40.1722 8.25686 40.4143C8.56307 40.6565 8.80328 40.9948 8.9775 41.4293C9.15172 41.8566 9.23883 42.3481 9.23883 42.9037L9.23091 43.1387ZM7.21947 40.7028C6.81823 40.7028 6.48035 40.8773 6.20582 41.2263C5.93658 41.5682 5.78347 42.0169 5.74652 42.5725H8.70033C8.66337 42.0169 8.50763 41.5682 8.23311 41.2263C7.96386 40.8773 7.62598 40.7028 7.21947 40.7028Z" fill="black"/>
<path d="M13.8061 40.0938L11.9531 45.7135H11.375L9.52985 40.0938H10.1159L11.6759 44.8801L13.2518 40.0938H13.8061Z" fill="black"/>
<path d="M18.1089 43.1387H14.6245C14.6562 43.7227 14.8225 44.1964 15.1234 44.5596C15.4244 44.9158 15.8045 45.0938 16.2638 45.0938C16.5225 45.0938 16.76 45.0333 16.9765 44.9122C17.1929 44.784 17.3804 44.5988 17.5387 44.3566L17.8555 44.8481C17.6707 45.1472 17.4384 45.3752 17.1586 45.5319C16.8841 45.6886 16.5805 45.7669 16.2479 45.7669C15.8203 45.7669 15.4402 45.6458 15.1076 45.4037C14.7803 45.1544 14.5242 44.8125 14.3394 44.378C14.1547 43.9435 14.0623 43.4521 14.0623 42.9037C14.0623 42.3552 14.1494 41.8638 14.3236 41.4293C14.5031 40.9948 14.746 40.6565 15.0522 40.4143C15.3636 40.1722 15.7121 40.0511 16.0975 40.0511C16.4829 40.0511 16.8287 40.1722 17.1349 40.4143C17.4411 40.6565 17.6813 40.9948 17.8555 41.4293C18.0297 41.8566 18.1168 42.3481 18.1168 42.9037L18.1089 43.1387ZM16.0975 40.7028C15.6962 40.7028 15.3584 40.8773 15.0838 41.2263C14.8146 41.5682 14.6615 42.0169 14.6245 42.5725H17.5783C17.5414 42.0169 17.3856 41.5682 17.1111 41.2263C16.8419 40.8773 16.504 40.7028 16.0975 40.7028Z" fill="black"/>
<path d="M24.4562 40.0511C24.9788 40.0511 25.388 40.2541 25.6836 40.6601C25.9846 41.066 26.135 41.6643 26.135 42.4549V45.7135H25.5728V42.5297C25.5728 41.9457 25.4672 41.5005 25.256 41.1943C25.0501 40.888 24.7571 40.7349 24.377 40.7349C23.9441 40.7349 23.6036 40.9165 23.3554 41.2797C23.1073 41.6358 22.9832 42.1309 22.9832 42.7648V45.7135H22.421V42.5297C22.421 41.9457 22.3154 41.5005 22.1042 41.1943C21.8983 40.888 21.6027 40.7349 21.2173 40.7349C20.7896 40.7349 20.4491 40.9165 20.1957 41.2797C19.9476 41.6358 19.8235 42.1309 19.8235 42.7648V45.7135H19.2613V40.0938H19.7998V41.1195C19.9476 40.7776 20.1535 40.5141 20.4175 40.3289C20.6814 40.1437 20.985 40.0511 21.3281 40.0511C21.6766 40.0511 21.9775 40.1508 22.2309 40.3502C22.4896 40.5497 22.6823 40.8452 22.809 41.237C22.9621 40.8666 23.1812 40.5782 23.4663 40.3716C23.7567 40.1579 24.0866 40.0511 24.4562 40.0511Z" fill="black"/>
<path d="M27.6598 40.0938H28.2221V45.7135H27.6598V40.0938ZM27.9449 38.8652C27.8287 38.8652 27.7311 38.8118 27.6519 38.7049C27.5727 38.5981 27.5331 38.4699 27.5331 38.3203C27.5331 38.1779 27.5727 38.0532 27.6519 37.9464C27.7311 37.8396 27.8287 37.7861 27.9449 37.7861C28.061 37.7861 28.1587 37.8396 28.2379 37.9464C28.3171 38.0461 28.3567 38.1672 28.3567 38.3096C28.3567 38.4663 28.3171 38.5981 28.2379 38.7049C28.1587 38.8118 28.061 38.8652 27.9449 38.8652Z" fill="black"/>
<path d="M37.735 38.2349V45.7135H37.1728V39.7306L34.995 44.7626H34.7179L32.5401 39.7626V45.7135H31.9779V38.2349H32.4609L34.8683 43.7797L37.252 38.2349H37.735Z" fill="black"/>
<path d="M40.8795 40.0511C41.4233 40.0511 41.8404 40.2363 42.1307 40.6066C42.4211 40.9699 42.5663 41.5112 42.5663 42.2306V45.7135H42.0278V44.8374C41.9011 45.1294 41.7137 45.3574 41.4655 45.5212C41.2227 45.685 40.9323 45.7669 40.5944 45.7669C40.1298 45.7669 39.7603 45.6173 39.4858 45.3182C39.2112 45.019 39.074 44.6237 39.074 44.1323C39.074 43.6551 39.2007 43.2705 39.4541 42.9784C39.7128 42.6864 40.1219 42.5404 40.6815 42.5404H42.004V42.1985C42.004 41.7142 41.9037 41.3474 41.7031 41.0981C41.5025 40.8417 41.2095 40.7135 40.8241 40.7135C40.5601 40.7135 40.3067 40.774 40.0638 40.8951C39.821 41.0091 39.6125 41.1693 39.4382 41.3759L39.1848 40.8096C39.396 40.5675 39.6494 40.3823 39.9451 40.2541C40.2407 40.1188 40.5522 40.0511 40.8795 40.0511ZM40.6815 45.1686C40.9983 45.1686 41.2702 45.0725 41.4972 44.8801C41.7242 44.6807 41.8932 44.3958 42.004 44.0254V43.1066H40.6974C39.9847 43.1066 39.6283 43.4414 39.6283 44.1109C39.6283 44.4386 39.7207 44.6985 39.9055 44.8908C40.0902 45.076 40.3489 45.1686 40.6815 45.1686Z" fill="black"/>
<path d="M44.6319 41.1943C44.7639 40.8168 44.9592 40.5319 45.2179 40.3396C45.4819 40.1472 45.8066 40.0511 46.192 40.0511V40.7883L46.0573 40.7776C45.6192 40.7776 45.276 40.9592 45.0279 41.3225C44.7797 41.6857 44.6557 42.195 44.6557 42.8502V45.7135H44.0934V40.0938H44.6319V41.1943Z" fill="black"/>
<path d="M48.7542 42.893L47.7723 44.1109V45.7135H47.21V37.7861H47.7723V43.1601L50.2588 40.0938H50.9557L49.1739 42.3908L51.122 45.7135H50.4331L48.7542 42.893Z" fill="black"/>
<path d="M55.4229 43.1387H51.9385C51.9702 43.7227 52.1365 44.1964 52.4374 44.5596C52.7383 44.9158 53.1184 45.0938 53.5777 45.0938C53.8364 45.0938 54.074 45.0333 54.2904 44.9122C54.5069 44.784 54.6943 44.5988 54.8527 44.3566L55.1695 44.8481C54.9847 45.1472 54.7524 45.3752 54.4726 45.5319C54.1981 45.6886 53.8945 45.7669 53.5619 45.7669C53.1343 45.7669 52.7542 45.6458 52.4215 45.4037C52.0942 45.1544 51.8382 44.8125 51.6534 44.378C51.4686 43.9435 51.3762 43.4521 51.3762 42.9037C51.3762 42.3552 51.4633 41.8638 51.6376 41.4293C51.8171 40.9948 52.0599 40.6565 52.3661 40.4143C52.6776 40.1722 53.026 40.0511 53.4114 40.0511C53.7968 40.0511 54.1426 40.1722 54.4488 40.4143C54.755 40.6565 54.9952 40.9948 55.1695 41.4293C55.3437 41.8566 55.4308 42.3481 55.4308 42.9037L55.4229 43.1387ZM53.4114 40.7028C53.0102 40.7028 52.6723 40.8773 52.3978 41.2263C52.1285 41.5682 51.9754 42.0169 51.9385 42.5725H54.8923C54.8553 42.0169 54.6996 41.5682 54.4251 41.2263C54.1558 40.8773 53.8179 40.7028 53.4114 40.7028Z" fill="black"/>
<path d="M58.7688 45.3716C58.6632 45.4998 58.5312 45.5995 58.3729 45.6707C58.2197 45.7349 58.0587 45.7669 57.8898 45.7669C57.4991 45.7669 57.1982 45.6245 56.987 45.3396C56.7758 45.0547 56.6702 44.6522 56.6702 44.1323V40.7349H55.9259V40.0938H56.6702V38.8652H57.2325V40.0938H58.4996V40.7349H57.2325V44.0896C57.2325 44.4243 57.2932 44.6807 57.4146 44.8588C57.5414 45.0297 57.7208 45.1152 57.9531 45.1152C58.0693 45.1152 58.1802 45.0903 58.2857 45.0404C58.3966 44.9905 58.4916 44.9193 58.5708 44.8267L58.7688 45.3716Z" fill="black"/>
<path d="M61.9384 40.0511C62.3291 40.0511 62.6828 40.1722 62.9996 40.4143C63.3163 40.6494 63.5645 40.9841 63.744 41.4186C63.9235 41.8531 64.0132 42.3481 64.0132 42.9037C64.0132 43.4663 63.9235 43.9649 63.744 44.3994C63.5645 44.8339 63.3163 45.1722 62.9996 45.4143C62.6881 45.6494 62.3344 45.7669 61.9384 45.7669C61.6005 45.7669 61.2943 45.6743 61.0198 45.4891C60.7505 45.2968 60.5288 45.019 60.3546 44.6558V47.7861H59.7923V40.0938H60.3308V41.2049C60.4998 40.8346 60.7215 40.5497 60.996 40.3502C61.2758 40.1508 61.59 40.0511 61.9384 40.0511ZM61.8988 45.0938C62.1892 45.0938 62.4531 45.0048 62.6907 44.8267C62.9283 44.6415 63.1131 44.3816 63.2451 44.0468C63.3823 43.7121 63.451 43.331 63.451 42.9037C63.451 42.4763 63.3823 42.0988 63.2451 41.7712C63.1131 41.4364 62.9283 41.1764 62.6907 40.9913C62.4531 40.8061 62.1892 40.7135 61.8988 40.7135C61.6032 40.7135 61.3366 40.8061 61.099 40.9913C60.8667 41.1764 60.6819 41.4364 60.5447 41.7712C60.4127 42.0988 60.3467 42.4763 60.3467 42.9037C60.3467 43.331 60.4127 43.7121 60.5447 44.0468C60.6819 44.3816 60.8667 44.6415 61.099 44.8267C61.3366 45.0048 61.6032 45.0938 61.8988 45.0938Z" fill="black"/>
<path d="M65.1594 37.7861H65.7216V45.7135H65.1594V37.7861Z" fill="black"/>
<path d="M68.7432 40.0511C69.2869 40.0511 69.704 40.2363 69.9944 40.6066C70.2848 40.9699 70.4299 41.5112 70.4299 42.2306V45.7135H69.8914V44.8374C69.7647 45.1294 69.5773 45.3574 69.3292 45.5212C69.0863 45.685 68.796 45.7669 68.4581 45.7669C67.9935 45.7669 67.6239 45.6173 67.3494 45.3182C67.0749 45.019 66.9376 44.6237 66.9376 44.1323C66.9376 43.6551 67.0643 43.2705 67.3177 42.9784C67.5764 42.6864 67.9856 42.5404 68.5452 42.5404H69.8677V42.1985C69.8677 41.7142 69.7674 41.3474 69.5668 41.0981C69.3661 40.8417 69.0731 40.7135 68.6877 40.7135C68.4238 40.7135 68.1704 40.774 67.9275 40.8951C67.6847 41.0091 67.4761 41.1693 67.3019 41.3759L67.0485 40.8096C67.2597 40.5675 67.5131 40.3823 67.8087 40.2541C68.1044 40.1188 68.4159 40.0511 68.7432 40.0511ZM68.5452 45.1686C68.862 45.1686 69.1339 45.0725 69.3609 44.8801C69.5879 44.6807 69.7568 44.3958 69.8677 44.0254V43.1066H68.561C67.8483 43.1066 67.492 43.4414 67.492 44.1109C67.492 44.4386 67.5844 44.6985 67.7691 44.8908C67.9539 45.076 68.2126 45.1686 68.5452 45.1686Z" fill="black"/>
<path d="M73.6989 45.7669C73.2871 45.7669 72.9175 45.6458 72.5902 45.4037C72.2682 45.1615 72.0148 44.8232 71.83 44.3887C71.6452 43.9471 71.5528 43.4521 71.5528 42.9037C71.5528 42.3552 71.6452 41.8638 71.83 41.4293C72.0148 40.9948 72.2682 40.6565 72.5902 40.4143C72.9175 40.1722 73.2871 40.0511 73.6989 40.0511C74.0579 40.0511 74.3773 40.1472 74.6571 40.3396C74.9422 40.5247 75.1666 40.799 75.3302 41.1622L74.9105 41.5468C74.7733 41.269 74.599 41.0625 74.3879 40.9272C74.1767 40.7847 73.947 40.7135 73.6989 40.7135C73.398 40.7135 73.1261 40.8061 72.8832 40.9913C72.6457 41.1693 72.4582 41.4257 72.321 41.7605C72.189 42.0952 72.123 42.4763 72.123 42.9037C72.123 43.3381 72.189 43.7227 72.321 44.0575C72.4582 44.3851 72.6457 44.6415 72.8832 44.8267C73.1261 45.0048 73.398 45.0938 73.6989 45.0938C73.947 45.0938 74.1767 45.0262 74.3879 44.8908C74.599 44.7555 74.7733 44.549 74.9105 44.2712L75.3302 44.6558C75.1666 45.019 74.9422 45.2968 74.6571 45.4891C74.372 45.6743 74.0526 45.7669 73.6989 45.7669Z" fill="black"/>
<path d="M79.9921 43.1387H76.5077C76.5394 43.7227 76.7057 44.1964 77.0066 44.5596C77.3075 44.9158 77.6876 45.0938 78.1469 45.0938C78.4056 45.0938 78.6432 45.0333 78.8597 44.9122C79.0761 44.784 79.2635 44.5988 79.4219 44.3566L79.7387 44.8481C79.5539 45.1472 79.3216 45.3752 79.0418 45.5319C78.7673 45.6886 78.4637 45.7669 78.1311 45.7669C77.7035 45.7669 77.3234 45.6458 76.9908 45.4037C76.6634 45.1544 76.4074 44.8125 76.2226 44.378C76.0378 43.9435 75.9454 43.4521 75.9454 42.9037C75.9454 42.3552 76.0325 41.8638 76.2068 41.4293C76.3863 40.9948 76.6291 40.6565 76.9353 40.4143C77.2468 40.1722 77.5952 40.0511 77.9806 40.0511C78.366 40.0511 78.7118 40.1722 79.018 40.4143C79.3242 40.6565 79.5645 40.9948 79.7387 41.4293C79.9129 41.8566 80 42.3481 80 42.9037L79.9921 43.1387ZM77.9806 40.7028C77.5794 40.7028 77.2415 40.8773 76.967 41.2263C76.6978 41.5682 76.5446 42.0169 76.5077 42.5725H79.4615C79.4246 42.0169 79.2688 41.5682 78.9943 41.2263C78.725 40.8773 78.3872 40.7028 77.9806 40.7028Z" fill="black"/>
<path d="M16.326 34.7745C11.8565 34.7745 8.2133 33.8485 5.3964 31.9965C2.59828 30.1445 1.19922 27.6773 1.19922 24.5949V24.0622C1.19922 21.9945 1.79077 20.1489 2.97387 18.5252C4.15697 16.8889 5.82833 15.6331 7.98795 14.7578C10.1664 13.8699 12.6452 13.4259 15.4246 13.4259C19.5936 13.4259 22.8706 14.3139 25.2556 16.0897C27.6593 17.8656 28.8612 20.3836 28.8612 23.6436V25.8888H9.45274C9.71565 27.2334 10.5044 28.3116 11.8189 29.1234C13.1523 29.9352 14.833 30.3412 16.8612 30.3412C19.9973 30.3412 22.448 29.5737 24.2133 28.0389L28.2133 31.0642C26.9926 32.2312 25.3401 33.1445 23.2556 33.8041C21.171 34.451 18.8612 34.7745 16.326 34.7745ZM15.3964 17.8783C13.7814 17.8783 12.4668 18.2462 11.4527 18.9819C10.4574 19.7176 9.81894 20.7704 9.53725 22.1404H20.8612V21.7028C20.8236 20.485 20.3354 19.5464 19.3964 18.8867C18.4574 18.2145 17.1241 17.8783 15.3964 17.8783Z" fill="#2F6D40"/>
<path d="M46.8894 23.282L42.495 26.4786V34.394H34.0443V6.69028H42.495V19.2483L46.2133 15.8043L56.664 6.69028H67.0584L52.495 19.0009L67.4809 34.394H57.4246L46.8894 23.282Z" fill="#2F6D40"/>
<path d="M78.7203 34.394H70.5513V13.8065H78.7203V34.394ZM70.0725 8.47884C70.0725 7.65432 70.4762 6.97569 71.2837 6.44292C72.11 5.91016 73.2274 5.64378 74.6358 5.64378C76.0255 5.64378 77.1335 5.91016 77.9598 6.44292C78.7861 6.97569 79.1992 7.65432 79.1992 8.47884C79.1992 9.31604 78.7767 10.001 77.9316 10.5338C77.1053 11.0665 76.0067 11.3329 74.6358 11.3329C73.2649 11.3329 72.157 11.0665 71.3119 10.5338C70.4856 10.001 70.0725 9.31604 70.0725 8.47884Z" fill="#2F6D40"/>
<path d="M69.3522 0L66.5193 12.3303L52.5858 5.2381L69.3522 0Z" fill="#2F6D40"/>
</svg>
