<svg width="618" height="385" viewBox="0 0 618 385" fill="none" xmlns="http://www.w3.org/2000/svg">
<ellipse cx="417.5" cy="192.5" rx="200.5" ry="192.5" fill="#A6A6A6"/>
<ellipse cx="200.5" cy="192.5" rx="200.5" ry="192.5" fill="#2E6B3E" fill-opacity="0.5"/>
<path d="M443.054 162C444.867 162 446.294 162.433 447.334 163.3C448.374 164.167 448.894 165.36 448.894 166.88C448.894 168.4 448.374 169.593 447.334 170.46C446.294 171.327 444.867 171.76 443.054 171.76H439.594V176H437.594V162H443.054ZM442.994 170.02C444.261 170.02 445.227 169.753 445.894 169.22C446.561 168.673 446.894 167.893 446.894 166.88C446.894 165.867 446.561 165.093 445.894 164.56C445.227 164.013 444.261 163.74 442.994 163.74H439.594V170.02H442.994ZM461.192 176L458.172 171.7C457.799 171.727 457.506 171.74 457.292 171.74H453.832V176H451.832V162H457.292C459.106 162 460.532 162.433 461.572 163.3C462.612 164.167 463.132 165.36 463.132 166.88C463.132 167.96 462.866 168.88 462.332 169.64C461.799 170.4 461.039 170.953 460.052 171.3L463.372 176H461.192ZM457.232 170.04C458.499 170.04 459.466 169.767 460.132 169.22C460.799 168.673 461.132 167.893 461.132 166.88C461.132 165.867 460.799 165.093 460.132 164.56C459.466 164.013 458.499 163.74 457.232 163.74H453.832V170.04H457.232ZM472.684 176.16C471.27 176.16 469.997 175.853 468.864 175.24C467.73 174.613 466.837 173.753 466.184 172.66C465.544 171.567 465.224 170.347 465.224 169C465.224 167.653 465.544 166.433 466.184 165.34C466.837 164.247 467.73 163.393 468.864 162.78C469.997 162.153 471.27 161.84 472.684 161.84C474.084 161.84 475.35 162.153 476.484 162.78C477.617 163.393 478.504 164.247 479.144 165.34C479.784 166.42 480.104 167.64 480.104 169C480.104 170.36 479.784 171.587 479.144 172.68C478.504 173.76 477.617 174.613 476.484 175.24C475.35 175.853 474.084 176.16 472.684 176.16ZM472.684 174.38C473.71 174.38 474.63 174.147 475.444 173.68C476.27 173.213 476.917 172.573 477.384 171.76C477.864 170.933 478.104 170.013 478.104 169C478.104 167.987 477.864 167.073 477.384 166.26C476.917 165.433 476.27 164.787 475.444 164.32C474.63 163.853 473.71 163.62 472.684 163.62C471.657 163.62 470.724 163.853 469.884 164.32C469.057 164.787 468.404 165.433 467.924 166.26C467.457 167.073 467.224 167.987 467.224 169C467.224 170.013 467.457 170.933 467.924 171.76C468.404 172.573 469.057 173.213 469.884 173.68C470.724 174.147 471.657 174.38 472.684 174.38ZM489.421 176.16C488.021 176.16 486.754 175.853 485.621 175.24C484.501 174.613 483.621 173.76 482.981 172.68C482.341 171.587 482.021 170.36 482.021 169C482.021 167.64 482.341 166.42 482.981 165.34C483.621 164.247 484.507 163.393 485.641 162.78C486.774 162.153 488.041 161.84 489.441 161.84C490.534 161.84 491.534 162.027 492.441 162.4C493.347 162.76 494.121 163.3 494.761 164.02L493.461 165.28C492.407 164.173 491.094 163.62 489.521 163.62C488.481 163.62 487.541 163.853 486.701 164.32C485.861 164.787 485.201 165.433 484.721 166.26C484.254 167.073 484.021 167.987 484.021 169C484.021 170.013 484.254 170.933 484.721 171.76C485.201 172.573 485.861 173.213 486.701 173.68C487.541 174.147 488.481 174.38 489.521 174.38C491.081 174.38 492.394 173.82 493.461 172.7L494.761 173.96C494.121 174.68 493.341 175.227 492.421 175.6C491.514 175.973 490.514 176.16 489.421 176.16ZM507.774 174.26V176H497.614V162H507.494V163.74H499.614V168.04H506.634V169.74H499.614V174.26H507.774ZM515.092 176.16C514.039 176.16 513.019 176 512.032 175.68C511.059 175.347 510.292 174.92 509.732 174.4L510.472 172.84C511.005 173.32 511.685 173.713 512.512 174.02C513.352 174.313 514.212 174.46 515.092 174.46C516.252 174.46 517.119 174.267 517.692 173.88C518.265 173.48 518.552 172.953 518.552 172.3C518.552 171.82 518.392 171.433 518.072 171.14C517.765 170.833 517.379 170.6 516.912 170.44C516.459 170.28 515.812 170.1 514.972 169.9C513.919 169.647 513.065 169.393 512.412 169.14C511.772 168.887 511.219 168.5 510.752 167.98C510.299 167.447 510.072 166.733 510.072 165.84C510.072 165.093 510.265 164.42 510.652 163.82C511.052 163.22 511.652 162.74 512.452 162.38C513.252 162.02 514.245 161.84 515.432 161.84C516.259 161.84 517.072 161.947 517.872 162.16C518.672 162.373 519.359 162.68 519.932 163.08L519.272 164.68C518.685 164.307 518.059 164.027 517.392 163.84C516.725 163.64 516.072 163.54 515.432 163.54C514.299 163.54 513.445 163.747 512.872 164.16C512.312 164.573 512.032 165.107 512.032 165.76C512.032 166.24 512.192 166.633 512.512 166.94C512.832 167.233 513.225 167.467 513.692 167.64C514.172 167.8 514.819 167.973 515.632 168.16C516.685 168.413 517.532 168.667 518.172 168.92C518.812 169.173 519.359 169.56 519.812 170.08C520.279 170.6 520.512 171.3 520.512 172.18C520.512 172.913 520.312 173.587 519.912 174.2C519.512 174.8 518.905 175.28 518.092 175.64C517.279 175.987 516.279 176.16 515.092 176.16ZM527.514 176.16C526.461 176.16 525.441 176 524.454 175.68C523.481 175.347 522.714 174.92 522.154 174.4L522.894 172.84C523.427 173.32 524.107 173.713 524.934 174.02C525.774 174.313 526.634 174.46 527.514 174.46C528.674 174.46 529.541 174.267 530.114 173.88C530.687 173.48 530.974 172.953 530.974 172.3C530.974 171.82 530.814 171.433 530.494 171.14C530.187 170.833 529.801 170.6 529.334 170.44C528.881 170.28 528.234 170.1 527.394 169.9C526.341 169.647 525.487 169.393 524.834 169.14C524.194 168.887 523.641 168.5 523.174 167.98C522.721 167.447 522.494 166.733 522.494 165.84C522.494 165.093 522.687 164.42 523.074 163.82C523.474 163.22 524.074 162.74 524.874 162.38C525.674 162.02 526.667 161.84 527.854 161.84C528.681 161.84 529.494 161.947 530.294 162.16C531.094 162.373 531.781 162.68 532.354 163.08L531.694 164.68C531.107 164.307 530.481 164.027 529.814 163.84C529.147 163.64 528.494 163.54 527.854 163.54C526.721 163.54 525.867 163.747 525.294 164.16C524.734 164.573 524.454 165.107 524.454 165.76C524.454 166.24 524.614 166.633 524.934 166.94C525.254 167.233 525.647 167.467 526.114 167.64C526.594 167.8 527.241 167.973 528.054 168.16C529.107 168.413 529.954 168.667 530.594 168.92C531.234 169.173 531.781 169.56 532.234 170.08C532.701 170.6 532.934 171.3 532.934 172.18C532.934 172.913 532.734 173.587 532.334 174.2C531.934 174.8 531.327 175.28 530.514 175.64C529.701 175.987 528.701 176.16 527.514 176.16ZM542.176 176.16C540.763 176.16 539.489 175.853 538.356 175.24C537.223 174.613 536.329 173.753 535.676 172.66C535.036 171.567 534.716 170.347 534.716 169C534.716 167.653 535.036 166.433 535.676 165.34C536.329 164.247 537.223 163.393 538.356 162.78C539.489 162.153 540.763 161.84 542.176 161.84C543.576 161.84 544.843 162.153 545.976 162.78C547.109 163.393 547.996 164.247 548.636 165.34C549.276 166.42 549.596 167.64 549.596 169C549.596 170.36 549.276 171.587 548.636 172.68C547.996 173.76 547.109 174.613 545.976 175.24C544.843 175.853 543.576 176.16 542.176 176.16ZM542.176 174.38C543.203 174.38 544.123 174.147 544.936 173.68C545.763 173.213 546.409 172.573 546.876 171.76C547.356 170.933 547.596 170.013 547.596 169C547.596 167.987 547.356 167.073 546.876 166.26C546.409 165.433 545.763 164.787 544.936 164.32C544.123 163.853 543.203 163.62 542.176 163.62C541.149 163.62 540.216 163.853 539.376 164.32C538.549 164.787 537.896 165.433 537.416 166.26C536.949 167.073 536.716 167.987 536.716 169C536.716 170.013 536.949 170.933 537.416 171.76C537.896 172.573 538.549 173.213 539.376 173.68C540.216 174.147 541.149 174.38 542.176 174.38ZM562.013 176L558.993 171.7C558.619 171.727 558.326 171.74 558.113 171.74H554.653V176H552.653V162H558.113C559.926 162 561.353 162.433 562.393 163.3C563.433 164.167 563.953 165.36 563.953 166.88C563.953 167.96 563.686 168.88 563.153 169.64C562.619 170.4 561.859 170.953 560.873 171.3L564.193 176H562.013ZM558.053 170.04C559.319 170.04 560.286 169.767 560.953 169.22C561.619 168.673 561.953 167.893 561.953 166.88C561.953 165.867 561.619 165.093 560.953 164.56C560.286 164.013 559.319 163.74 558.053 163.74H554.653V170.04H558.053ZM571.264 176.16C570.211 176.16 569.191 176 568.204 175.68C567.231 175.347 566.464 174.92 565.904 174.4L566.644 172.84C567.177 173.32 567.857 173.713 568.684 174.02C569.524 174.313 570.384 174.46 571.264 174.46C572.424 174.46 573.291 174.267 573.864 173.88C574.437 173.48 574.724 172.953 574.724 172.3C574.724 171.82 574.564 171.433 574.244 171.14C573.937 170.833 573.551 170.6 573.084 170.44C572.631 170.28 571.984 170.1 571.144 169.9C570.091 169.647 569.237 169.393 568.584 169.14C567.944 168.887 567.391 168.5 566.924 167.98C566.471 167.447 566.244 166.733 566.244 165.84C566.244 165.093 566.437 164.42 566.824 163.82C567.224 163.22 567.824 162.74 568.624 162.38C569.424 162.02 570.417 161.84 571.604 161.84C572.431 161.84 573.244 161.947 574.044 162.16C574.844 162.373 575.531 162.68 576.104 163.08L575.444 164.68C574.857 164.307 574.231 164.027 573.564 163.84C572.897 163.64 572.244 163.54 571.604 163.54C570.471 163.54 569.617 163.747 569.044 164.16C568.484 164.573 568.204 165.107 568.204 165.76C568.204 166.24 568.364 166.633 568.684 166.94C569.004 167.233 569.397 167.467 569.864 167.64C570.344 167.8 570.991 167.973 571.804 168.16C572.857 168.413 573.704 168.667 574.344 168.92C574.984 169.173 575.531 169.56 575.984 170.08C576.451 170.6 576.684 171.3 576.684 172.18C576.684 172.913 576.484 173.587 576.084 174.2C575.684 174.8 575.077 175.28 574.264 175.64C573.451 175.987 572.451 176.16 571.264 176.16ZM427.185 200L427.165 189.8L422.105 198.3H421.185L416.125 189.86V200H414.205V186H415.845L421.685 195.84L427.445 186H429.085L429.105 200H427.185ZM442.227 196.5H434.787L433.247 200H431.187L437.527 186H439.507L445.867 200H443.767L442.227 196.5ZM441.527 194.9L438.507 188.04L435.487 194.9H441.527ZM459.995 186V200H458.355L449.955 189.56V200H447.955V186H449.595L457.995 196.44V186H459.995ZM469.986 200.16C468.119 200.16 466.666 199.627 465.626 198.56C464.586 197.493 464.066 195.96 464.066 193.96V186H466.066V193.88C466.066 196.88 467.379 198.38 470.006 198.38C471.286 198.38 472.266 198.013 472.946 197.28C473.626 196.533 473.966 195.4 473.966 193.88V186H475.906V193.96C475.906 195.973 475.386 197.513 474.346 198.58C473.306 199.633 471.853 200.16 469.986 200.16ZM482.006 187.74V192.62H489.026V194.34H482.006V200H480.006V186H489.886V187.74H482.006ZM500.977 196.5H493.537L491.997 200H489.937L496.277 186H498.257L504.617 200H502.517L500.977 196.5ZM500.277 194.9L497.257 188.04L494.237 194.9H500.277ZM512.77 200.16C511.37 200.16 510.103 199.853 508.97 199.24C507.85 198.613 506.97 197.76 506.33 196.68C505.69 195.587 505.37 194.36 505.37 193C505.37 191.64 505.69 190.42 506.33 189.34C506.97 188.247 507.857 187.393 508.99 186.78C510.123 186.153 511.39 185.84 512.79 185.84C513.883 185.84 514.883 186.027 515.79 186.4C516.697 186.76 517.47 187.3 518.11 188.02L516.81 189.28C515.757 188.173 514.443 187.62 512.87 187.62C511.83 187.62 510.89 187.853 510.05 188.32C509.21 188.787 508.55 189.433 508.07 190.26C507.603 191.073 507.37 191.987 507.37 193C507.37 194.013 507.603 194.933 508.07 195.76C508.55 196.573 509.21 197.213 510.05 197.68C510.89 198.147 511.83 198.38 512.87 198.38C514.43 198.38 515.743 197.82 516.81 196.7L518.11 197.96C517.47 198.68 516.69 199.227 515.77 199.6C514.863 199.973 513.863 200.16 512.77 200.16ZM523.587 187.74H518.787V186H530.367V187.74H525.567V200H523.587V187.74ZM538.091 200.16C536.225 200.16 534.771 199.627 533.731 198.56C532.691 197.493 532.171 195.96 532.171 193.96V186H534.171V193.88C534.171 196.88 535.485 198.38 538.111 198.38C539.391 198.38 540.371 198.013 541.051 197.28C541.731 196.533 542.071 195.4 542.071 193.88V186H544.011V193.96C544.011 195.973 543.491 197.513 542.451 198.58C541.411 199.633 539.958 200.16 538.091 200.16ZM557.472 200L554.452 195.7C554.078 195.727 553.785 195.74 553.572 195.74H550.112V200H548.112V186H553.572C555.385 186 556.812 186.433 557.852 187.3C558.892 188.167 559.412 189.36 559.412 190.88C559.412 191.96 559.145 192.88 558.612 193.64C558.078 194.4 557.318 194.953 556.332 195.3L559.652 200H557.472ZM553.512 194.04C554.778 194.04 555.745 193.767 556.412 193.22C557.078 192.673 557.412 191.893 557.412 190.88C557.412 189.867 557.078 189.093 556.412 188.56C555.745 188.013 554.778 187.74 553.512 187.74H550.112V194.04H553.512ZM572.803 198.26V200H562.643V186H572.523V187.74H564.643V192.04H571.663V193.74H564.643V198.26H572.803ZM585.401 200L582.381 195.7C582.008 195.727 581.715 195.74 581.501 195.74H578.041V200H576.041V186H581.501C583.315 186 584.741 186.433 585.781 187.3C586.821 188.167 587.341 189.36 587.341 190.88C587.341 191.96 587.075 192.88 586.541 193.64C586.008 194.4 585.248 194.953 584.261 195.3L587.581 200H585.401ZM581.441 194.04C582.708 194.04 583.675 193.767 584.341 193.22C585.008 192.673 585.341 191.893 585.341 190.88C585.341 189.867 585.008 189.093 584.341 188.56C583.675 188.013 582.708 187.74 581.441 187.74H578.041V194.04H581.441ZM594.653 200.16C593.599 200.16 592.579 200 591.593 199.68C590.619 199.347 589.853 198.92 589.293 198.4L590.033 196.84C590.566 197.32 591.246 197.713 592.073 198.02C592.913 198.313 593.773 198.46 594.653 198.46C595.813 198.46 596.679 198.267 597.253 197.88C597.826 197.48 598.113 196.953 598.113 196.3C598.113 195.82 597.953 195.433 597.633 195.14C597.326 194.833 596.939 194.6 596.473 194.44C596.019 194.28 595.373 194.1 594.533 193.9C593.479 193.647 592.626 193.393 591.973 193.14C591.333 192.887 590.779 192.5 590.313 191.98C589.859 191.447 589.633 190.733 589.633 189.84C589.633 189.093 589.826 188.42 590.213 187.82C590.613 187.22 591.213 186.74 592.013 186.38C592.813 186.02 593.806 185.84 594.993 185.84C595.819 185.84 596.633 185.947 597.433 186.16C598.233 186.373 598.919 186.68 599.493 187.08L598.833 188.68C598.246 188.307 597.619 188.027 596.953 187.84C596.286 187.64 595.633 187.54 594.993 187.54C593.859 187.54 593.006 187.747 592.433 188.16C591.873 188.573 591.593 189.107 591.593 189.76C591.593 190.24 591.753 190.633 592.073 190.94C592.393 191.233 592.786 191.467 593.253 191.64C593.733 191.8 594.379 191.973 595.193 192.16C596.246 192.413 597.093 192.667 597.733 192.92C598.373 193.173 598.919 193.56 599.373 194.08C599.839 194.6 600.073 195.3 600.073 196.18C600.073 196.913 599.873 197.587 599.473 198.2C599.073 198.8 598.466 199.28 597.653 199.64C596.839 199.987 595.839 200.16 594.653 200.16ZM461.944 224L458.924 219.7C458.551 219.727 458.258 219.74 458.044 219.74H454.584V224H452.584V210H458.044C459.858 210 461.284 210.433 462.324 211.3C463.364 212.167 463.884 213.36 463.884 214.88C463.884 215.96 463.618 216.88 463.084 217.64C462.551 218.4 461.791 218.953 460.804 219.3L464.124 224H461.944ZM457.984 218.04C459.251 218.04 460.218 217.767 460.884 217.22C461.551 216.673 461.884 215.893 461.884 214.88C461.884 213.867 461.551 213.093 460.884 212.56C460.218 212.013 459.251 211.74 457.984 211.74H454.584V218.04H457.984ZM477.276 222.26V224H467.116V210H476.996V211.74H469.116V216.04H476.136V217.74H469.116V222.26H477.276ZM483.294 211.74H478.494V210H490.074V211.74H485.274V224H483.294V211.74ZM500.469 220.5H493.029L491.489 224H489.429L495.769 210H497.749L504.109 224H502.009L500.469 220.5ZM499.769 218.9L496.749 212.04L493.729 218.9H499.769ZM506.198 210H508.198V224H506.198V210ZM512.389 210H514.389V222.26H521.969V224H512.389V210ZM534.424 222.26V224H524.264V210H534.144V211.74H526.264V216.04H533.284V217.74H526.264V222.26H534.424ZM547.023 224L544.003 219.7C543.629 219.727 543.336 219.74 543.123 219.74H539.663V224H537.663V210H543.123C544.936 210 546.363 210.433 547.403 211.3C548.443 212.167 548.963 213.36 548.963 214.88C548.963 215.96 548.696 216.88 548.163 217.64C547.629 218.4 546.869 218.953 545.883 219.3L549.203 224H547.023ZM543.063 218.04C544.329 218.04 545.296 217.767 545.963 217.22C546.629 216.673 546.963 215.893 546.963 214.88C546.963 213.867 546.629 213.093 545.963 212.56C545.296 212.013 544.329 211.74 543.063 211.74H539.663V218.04H543.063ZM556.274 224.16C555.22 224.16 554.2 224 553.214 223.68C552.24 223.347 551.474 222.92 550.914 222.4L551.654 220.84C552.187 221.32 552.867 221.713 553.694 222.02C554.534 222.313 555.394 222.46 556.274 222.46C557.434 222.46 558.3 222.267 558.874 221.88C559.447 221.48 559.734 220.953 559.734 220.3C559.734 219.82 559.574 219.433 559.254 219.14C558.947 218.833 558.56 218.6 558.094 218.44C557.64 218.28 556.994 218.1 556.154 217.9C555.1 217.647 554.247 217.393 553.594 217.14C552.954 216.887 552.4 216.5 551.934 215.98C551.48 215.447 551.254 214.733 551.254 213.84C551.254 213.093 551.447 212.42 551.834 211.82C552.234 211.22 552.834 210.74 553.634 210.38C554.434 210.02 555.427 209.84 556.614 209.84C557.44 209.84 558.254 209.947 559.054 210.16C559.854 210.373 560.54 210.68 561.114 211.08L560.454 212.68C559.867 212.307 559.24 212.027 558.574 211.84C557.907 211.64 557.254 211.54 556.614 211.54C555.48 211.54 554.627 211.747 554.054 212.16C553.494 212.573 553.214 213.107 553.214 213.76C553.214 214.24 553.374 214.633 553.694 214.94C554.014 215.233 554.407 215.467 554.874 215.64C555.354 215.8 556 215.973 556.814 216.16C557.867 216.413 558.714 216.667 559.354 216.92C559.994 217.173 560.54 217.56 560.994 218.08C561.46 218.6 561.694 219.3 561.694 220.18C561.694 220.913 561.494 221.587 561.094 222.2C560.694 222.8 560.087 223.28 559.274 223.64C558.46 223.987 557.46 224.16 556.274 224.16Z" fill="white"/>
<path d="M70.7582 163.74V168.62H77.7782V170.34H70.7582V176H68.7582V162H78.6382V163.74H70.7582ZM89.729 172.5H82.289L80.749 176H78.689L85.029 162H87.009L93.369 176H91.269L89.729 172.5ZM89.029 170.9L86.009 164.04L82.989 170.9H89.029ZM104.817 176L101.797 171.7C101.424 171.727 101.131 171.74 100.917 171.74H97.4574V176H95.4574V162H100.917C102.731 162 104.157 162.433 105.197 163.3C106.237 164.167 106.757 165.36 106.757 166.88C106.757 167.96 106.491 168.88 105.957 169.64C105.424 170.4 104.664 170.953 103.677 171.3L106.997 176H104.817ZM100.857 170.04C102.124 170.04 103.091 169.767 103.757 169.22C104.424 168.673 104.757 167.893 104.757 166.88C104.757 165.867 104.424 165.093 103.757 164.56C103.091 164.013 102.124 163.74 100.857 163.74H97.4574V170.04H100.857ZM122.969 176L122.949 165.8L117.889 174.3H116.969L111.909 165.86V176H109.989V162H111.629L117.469 171.84L123.229 162H124.869L124.889 176H122.969ZM139.25 174.26V176H129.09V162H138.97V163.74H131.09V168.04H138.11V169.74H131.09V174.26H139.25ZM151.849 176L148.829 171.7C148.455 171.727 148.162 171.74 147.949 171.74H144.489V176H142.489V162H147.949C149.762 162 151.189 162.433 152.229 163.3C153.269 164.167 153.789 165.36 153.789 166.88C153.789 167.96 153.522 168.88 152.989 169.64C152.455 170.4 151.695 170.953 150.709 171.3L154.029 176H151.849ZM147.889 170.04C149.155 170.04 150.122 169.767 150.789 169.22C151.455 168.673 151.789 167.893 151.789 166.88C151.789 165.867 151.455 165.093 150.789 164.56C150.122 164.013 149.155 163.74 147.889 163.74H144.489V170.04H147.889ZM161.1 176.16C160.047 176.16 159.027 176 158.04 175.68C157.067 175.347 156.3 174.92 155.74 174.4L156.48 172.84C157.013 173.32 157.693 173.713 158.52 174.02C159.36 174.313 160.22 174.46 161.1 174.46C162.26 174.46 163.127 174.267 163.7 173.88C164.273 173.48 164.56 172.953 164.56 172.3C164.56 171.82 164.4 171.433 164.08 171.14C163.773 170.833 163.387 170.6 162.92 170.44C162.467 170.28 161.82 170.1 160.98 169.9C159.927 169.647 159.073 169.393 158.42 169.14C157.78 168.887 157.227 168.5 156.76 167.98C156.307 167.447 156.08 166.733 156.08 165.84C156.08 165.093 156.273 164.42 156.66 163.82C157.06 163.22 157.66 162.74 158.46 162.38C159.26 162.02 160.253 161.84 161.44 161.84C162.267 161.84 163.08 161.947 163.88 162.16C164.68 162.373 165.367 162.68 165.94 163.08L165.28 164.68C164.693 164.307 164.067 164.027 163.4 163.84C162.733 163.64 162.08 163.54 161.44 163.54C160.307 163.54 159.453 163.747 158.88 164.16C158.32 164.573 158.04 165.107 158.04 165.76C158.04 166.24 158.2 166.633 158.52 166.94C158.84 167.233 159.233 167.467 159.7 167.64C160.18 167.8 160.827 167.973 161.64 168.16C162.693 168.413 163.54 168.667 164.18 168.92C164.82 169.173 165.367 169.56 165.82 170.08C166.287 170.6 166.52 171.3 166.52 172.18C166.52 172.913 166.32 173.587 165.92 174.2C165.52 174.8 164.913 175.28 164.1 175.64C163.287 175.987 162.287 176.16 161.1 176.16ZM44.6471 200.16C43.2471 200.16 41.9804 199.853 40.8471 199.24C39.7271 198.613 38.8471 197.76 38.2071 196.68C37.5671 195.587 37.2471 194.36 37.2471 193C37.2471 191.64 37.5671 190.42 38.2071 189.34C38.8471 188.247 39.7338 187.393 40.8671 186.78C42.0004 186.153 43.2671 185.84 44.6671 185.84C45.7604 185.84 46.7604 186.027 47.6671 186.4C48.5738 186.76 49.3471 187.3 49.9871 188.02L48.6871 189.28C47.6338 188.173 46.3204 187.62 44.7471 187.62C43.7071 187.62 42.7671 187.853 41.9271 188.32C41.0871 188.787 40.4271 189.433 39.9471 190.26C39.4804 191.073 39.2471 191.987 39.2471 193C39.2471 194.013 39.4804 194.933 39.9471 195.76C40.4271 196.573 41.0871 197.213 41.9271 197.68C42.7671 198.147 43.7071 198.38 44.7471 198.38C46.3071 198.38 47.6204 197.82 48.6871 196.7L49.9871 197.96C49.3471 198.68 48.5671 199.227 47.6471 199.6C46.7404 199.973 45.7404 200.16 44.6471 200.16ZM58.8673 200.16C57.4539 200.16 56.1806 199.853 55.0473 199.24C53.9139 198.613 53.0206 197.753 52.3673 196.66C51.7273 195.567 51.4073 194.347 51.4073 193C51.4073 191.653 51.7273 190.433 52.3673 189.34C53.0206 188.247 53.9139 187.393 55.0473 186.78C56.1806 186.153 57.4539 185.84 58.8673 185.84C60.2673 185.84 61.5339 186.153 62.6673 186.78C63.8006 187.393 64.6873 188.247 65.3273 189.34C65.9673 190.42 66.2873 191.64 66.2873 193C66.2873 194.36 65.9673 195.587 65.3273 196.68C64.6873 197.76 63.8006 198.613 62.6673 199.24C61.5339 199.853 60.2673 200.16 58.8673 200.16ZM58.8673 198.38C59.8939 198.38 60.8139 198.147 61.6273 197.68C62.4539 197.213 63.1006 196.573 63.5673 195.76C64.0473 194.933 64.2873 194.013 64.2873 193C64.2873 191.987 64.0473 191.073 63.5673 190.26C63.1006 189.433 62.4539 188.787 61.6273 188.32C60.8139 187.853 59.8939 187.62 58.8673 187.62C57.8406 187.62 56.9073 187.853 56.0673 188.32C55.2406 188.787 54.5873 189.433 54.1073 190.26C53.6406 191.073 53.4073 191.987 53.4073 193C53.4073 194.013 53.6406 194.933 54.1073 195.76C54.5873 196.573 55.2406 197.213 56.0673 197.68C56.9073 198.147 57.8406 198.38 58.8673 198.38ZM75.6641 200.16C74.2508 200.16 72.9775 199.853 71.8441 199.24C70.7108 198.613 69.8175 197.753 69.1641 196.66C68.5241 195.567 68.2041 194.347 68.2041 193C68.2041 191.653 68.5241 190.433 69.1641 189.34C69.8175 188.247 70.7108 187.393 71.8441 186.78C72.9775 186.153 74.2508 185.84 75.6641 185.84C77.0641 185.84 78.3308 186.153 79.4641 186.78C80.5975 187.393 81.4841 188.247 82.1241 189.34C82.7641 190.42 83.0841 191.64 83.0841 193C83.0841 194.36 82.7641 195.587 82.1241 196.68C81.4841 197.76 80.5975 198.613 79.4641 199.24C78.3308 199.853 77.0641 200.16 75.6641 200.16ZM75.6641 198.38C76.6908 198.38 77.6108 198.147 78.4241 197.68C79.2508 197.213 79.8975 196.573 80.3641 195.76C80.8441 194.933 81.0841 194.013 81.0841 193C81.0841 191.987 80.8441 191.073 80.3641 190.26C79.8975 189.433 79.2508 188.787 78.4241 188.32C77.6108 187.853 76.6908 187.62 75.6641 187.62C74.6375 187.62 73.7041 187.853 72.8641 188.32C72.0375 188.787 71.3841 189.433 70.9041 190.26C70.4375 191.073 70.2041 191.987 70.2041 193C70.2041 194.013 70.4375 194.933 70.9041 195.76C71.3841 196.573 72.0375 197.213 72.8641 197.68C73.7041 198.147 74.6375 198.38 75.6641 198.38ZM91.601 186C93.4143 186 94.841 186.433 95.881 187.3C96.921 188.167 97.441 189.36 97.441 190.88C97.441 192.4 96.921 193.593 95.881 194.46C94.841 195.327 93.4143 195.76 91.601 195.76H88.141V200H86.141V186H91.601ZM91.541 194.02C92.8077 194.02 93.7743 193.753 94.441 193.22C95.1077 192.673 95.441 191.893 95.441 190.88C95.441 189.867 95.1077 189.093 94.441 188.56C93.7743 188.013 92.8077 187.74 91.541 187.74H88.141V194.02H91.541ZM110.539 198.26V200H100.379V186H110.259V187.74H102.379V192.04H109.399V193.74H102.379V198.26H110.539ZM123.138 200L120.118 195.7C119.744 195.727 119.451 195.74 119.238 195.74H115.778V200H113.778V186H119.238C121.051 186 122.478 186.433 123.518 187.3C124.558 188.167 125.078 189.36 125.078 190.88C125.078 191.96 124.811 192.88 124.278 193.64C123.744 194.4 122.984 194.953 121.998 195.3L125.318 200H123.138ZM119.178 194.04C120.444 194.04 121.411 193.767 122.078 193.22C122.744 192.673 123.078 191.893 123.078 190.88C123.078 189.867 122.744 189.093 122.078 188.56C121.411 188.013 120.444 187.74 119.178 187.74H115.778V194.04H119.178ZM137.229 196.5H129.789L128.249 200H126.189L132.529 186H134.509L140.869 200H138.769L137.229 196.5ZM136.529 194.9L133.509 188.04L130.489 194.9H136.529ZM145.034 187.74H140.234V186H151.814V187.74H147.014V200H145.034V187.74ZM153.993 186H155.993V200H153.993V186ZM172.207 186L166.067 200H164.087L157.927 186H160.087L165.127 197.5L170.207 186H172.207ZM184.153 198.26V200H173.993V186H183.873V187.74H175.993V192.04H183.013V193.74H175.993V198.26H184.153ZM191.471 200.16C190.418 200.16 189.398 200 188.411 199.68C187.438 199.347 186.671 198.92 186.111 198.4L186.851 196.84C187.384 197.32 188.064 197.713 188.891 198.02C189.731 198.313 190.591 198.46 191.471 198.46C192.631 198.46 193.498 198.267 194.071 197.88C194.644 197.48 194.931 196.953 194.931 196.3C194.931 195.82 194.771 195.433 194.451 195.14C194.144 194.833 193.758 194.6 193.291 194.44C192.838 194.28 192.191 194.1 191.351 193.9C190.298 193.647 189.444 193.393 188.791 193.14C188.151 192.887 187.598 192.5 187.131 191.98C186.678 191.447 186.451 190.733 186.451 189.84C186.451 189.093 186.644 188.42 187.031 187.82C187.431 187.22 188.031 186.74 188.831 186.38C189.631 186.02 190.624 185.84 191.811 185.84C192.638 185.84 193.451 185.947 194.251 186.16C195.051 186.373 195.738 186.68 196.311 187.08L195.651 188.68C195.064 188.307 194.438 188.027 193.771 187.84C193.104 187.64 192.451 187.54 191.811 187.54C190.678 187.54 189.824 187.747 189.251 188.16C188.691 188.573 188.411 189.107 188.411 189.76C188.411 190.24 188.571 190.633 188.891 190.94C189.211 191.233 189.604 191.467 190.071 191.64C190.551 191.8 191.198 191.973 192.011 192.16C193.064 192.413 193.911 192.667 194.551 192.92C195.191 193.173 195.738 193.56 196.191 194.08C196.658 194.6 196.891 195.3 196.891 196.18C196.891 196.913 196.691 197.587 196.291 198.2C195.891 198.8 195.284 199.28 194.471 199.64C193.658 199.987 192.658 200.16 191.471 200.16ZM57.102 220.5H49.662L48.122 224H46.062L52.402 210H54.382L60.742 224H58.642L57.102 220.5ZM56.402 218.9L53.382 212.04L50.362 218.9H56.402ZM66.9105 224.16C65.8571 224.16 64.8371 224 63.8505 223.68C62.8771 223.347 62.1105 222.92 61.5505 222.4L62.2905 220.84C62.8238 221.32 63.5038 221.713 64.3305 222.02C65.1705 222.313 66.0305 222.46 66.9105 222.46C68.0705 222.46 68.9371 222.267 69.5105 221.88C70.0838 221.48 70.3705 220.953 70.3705 220.3C70.3705 219.82 70.2105 219.433 69.8905 219.14C69.5838 218.833 69.1971 218.6 68.7305 218.44C68.2771 218.28 67.6305 218.1 66.7905 217.9C65.7371 217.647 64.8838 217.393 64.2305 217.14C63.5905 216.887 63.0371 216.5 62.5705 215.98C62.1171 215.447 61.8905 214.733 61.8905 213.84C61.8905 213.093 62.0838 212.42 62.4705 211.82C62.8705 211.22 63.4705 210.74 64.2705 210.38C65.0705 210.02 66.0638 209.84 67.2505 209.84C68.0771 209.84 68.8905 209.947 69.6905 210.16C70.4905 210.373 71.1771 210.68 71.7505 211.08L71.0905 212.68C70.5038 212.307 69.8771 212.027 69.2105 211.84C68.5438 211.64 67.8905 211.54 67.2505 211.54C66.1171 211.54 65.2638 211.747 64.6905 212.16C64.1305 212.573 63.8505 213.107 63.8505 213.76C63.8505 214.24 64.0105 214.633 64.3305 214.94C64.6505 215.233 65.0438 215.467 65.5105 215.64C65.9905 215.8 66.6371 215.973 67.4505 216.16C68.5038 216.413 69.3505 216.667 69.9905 216.92C70.6305 217.173 71.1771 217.56 71.6305 218.08C72.0971 218.6 72.3305 219.3 72.3305 220.18C72.3305 220.913 72.1305 221.587 71.7305 222.2C71.3305 222.8 70.7238 223.28 69.9105 223.64C69.0971 223.987 68.0971 224.16 66.9105 224.16ZM79.3323 224.16C78.279 224.16 77.259 224 76.2723 223.68C75.299 223.347 74.5323 222.92 73.9723 222.4L74.7123 220.84C75.2457 221.32 75.9257 221.713 76.7523 222.02C77.5923 222.313 78.4523 222.46 79.3323 222.46C80.4923 222.46 81.359 222.267 81.9323 221.88C82.5057 221.48 82.7923 220.953 82.7923 220.3C82.7923 219.82 82.6323 219.433 82.3123 219.14C82.0057 218.833 81.619 218.6 81.1523 218.44C80.699 218.28 80.0523 218.1 79.2123 217.9C78.159 217.647 77.3057 217.393 76.6523 217.14C76.0123 216.887 75.459 216.5 74.9923 215.98C74.539 215.447 74.3123 214.733 74.3123 213.84C74.3123 213.093 74.5057 212.42 74.8923 211.82C75.2923 211.22 75.8923 210.74 76.6923 210.38C77.4923 210.02 78.4857 209.84 79.6723 209.84C80.499 209.84 81.3123 209.947 82.1123 210.16C82.9123 210.373 83.599 210.68 84.1723 211.08L83.5123 212.68C82.9257 212.307 82.299 212.027 81.6323 211.84C80.9657 211.64 80.3123 211.54 79.6723 211.54C78.539 211.54 77.6857 211.747 77.1123 212.16C76.5523 212.573 76.2723 213.107 76.2723 213.76C76.2723 214.24 76.4323 214.633 76.7523 214.94C77.0723 215.233 77.4657 215.467 77.9323 215.64C78.4123 215.8 79.059 215.973 79.8723 216.16C80.9257 216.413 81.7723 216.667 82.4123 216.92C83.0523 217.173 83.599 217.56 84.0523 218.08C84.519 218.6 84.7523 219.3 84.7523 220.18C84.7523 220.913 84.5523 221.587 84.1523 222.2C83.7523 222.8 83.1457 223.28 82.3323 223.64C81.519 223.987 80.519 224.16 79.3323 224.16ZM93.9942 224.16C92.5809 224.16 91.3076 223.853 90.1742 223.24C89.0409 222.613 88.1476 221.753 87.4942 220.66C86.8542 219.567 86.5342 218.347 86.5342 217C86.5342 215.653 86.8542 214.433 87.4942 213.34C88.1476 212.247 89.0409 211.393 90.1742 210.78C91.3076 210.153 92.5809 209.84 93.9942 209.84C95.3942 209.84 96.6609 210.153 97.7942 210.78C98.9276 211.393 99.8142 212.247 100.454 213.34C101.094 214.42 101.414 215.64 101.414 217C101.414 218.36 101.094 219.587 100.454 220.68C99.8142 221.76 98.9276 222.613 97.7942 223.24C96.6609 223.853 95.3942 224.16 93.9942 224.16ZM93.9942 222.38C95.0209 222.38 95.9409 222.147 96.7542 221.68C97.5809 221.213 98.2276 220.573 98.6942 219.76C99.1742 218.933 99.4142 218.013 99.4142 217C99.4142 215.987 99.1742 215.073 98.6942 214.26C98.2276 213.433 97.5809 212.787 96.7542 212.32C95.9409 211.853 95.0209 211.62 93.9942 211.62C92.9676 211.62 92.0342 211.853 91.1942 212.32C90.3676 212.787 89.7142 213.433 89.2342 214.26C88.7676 215.073 88.5342 215.987 88.5342 217C88.5342 218.013 88.7676 218.933 89.2342 219.76C89.7142 220.573 90.3676 221.213 91.1942 221.68C92.0342 222.147 92.9676 222.38 93.9942 222.38ZM110.731 224.16C109.331 224.16 108.064 223.853 106.931 223.24C105.811 222.613 104.931 221.76 104.291 220.68C103.651 219.587 103.331 218.36 103.331 217C103.331 215.64 103.651 214.42 104.291 213.34C104.931 212.247 105.818 211.393 106.951 210.78C108.084 210.153 109.351 209.84 110.751 209.84C111.844 209.84 112.844 210.027 113.751 210.4C114.658 210.76 115.431 211.3 116.071 212.02L114.771 213.28C113.718 212.173 112.404 211.62 110.831 211.62C109.791 211.62 108.851 211.853 108.011 212.32C107.171 212.787 106.511 213.433 106.031 214.26C105.564 215.073 105.331 215.987 105.331 217C105.331 218.013 105.564 218.933 106.031 219.76C106.511 220.573 107.171 221.213 108.011 221.68C108.851 222.147 109.791 222.38 110.831 222.38C112.391 222.38 113.704 221.82 114.771 220.7L116.071 221.96C115.431 222.68 114.651 223.227 113.731 223.6C112.824 223.973 111.824 224.16 110.731 224.16ZM118.924 210H120.924V224H118.924V210ZM134.036 220.5H126.596L125.056 224H122.996L129.336 210H131.316L137.676 224H135.576L134.036 220.5ZM133.336 218.9L130.316 212.04L127.296 218.9H133.336ZM141.841 211.74H137.041V210H148.621V211.74H143.821V224H141.841V211.74ZM150.799 210H152.799V224H150.799V210ZM163.311 224.16C161.897 224.16 160.624 223.853 159.491 223.24C158.357 222.613 157.464 221.753 156.811 220.66C156.171 219.567 155.851 218.347 155.851 217C155.851 215.653 156.171 214.433 156.811 213.34C157.464 212.247 158.357 211.393 159.491 210.78C160.624 210.153 161.897 209.84 163.311 209.84C164.711 209.84 165.977 210.153 167.111 210.78C168.244 211.393 169.131 212.247 169.771 213.34C170.411 214.42 170.731 215.64 170.731 217C170.731 218.36 170.411 219.587 169.771 220.68C169.131 221.76 168.244 222.613 167.111 223.24C165.977 223.853 164.711 224.16 163.311 224.16ZM163.311 222.38C164.337 222.38 165.257 222.147 166.071 221.68C166.897 221.213 167.544 220.573 168.011 219.76C168.491 218.933 168.731 218.013 168.731 217C168.731 215.987 168.491 215.073 168.011 214.26C167.544 213.433 166.897 212.787 166.071 212.32C165.257 211.853 164.337 211.62 163.311 211.62C162.284 211.62 161.351 211.853 160.511 212.32C159.684 212.787 159.031 213.433 158.551 214.26C158.084 215.073 157.851 215.987 157.851 217C157.851 218.013 158.084 218.933 158.551 219.76C159.031 220.573 159.684 221.213 160.511 221.68C161.351 222.147 162.284 222.38 163.311 222.38ZM185.828 210V224H184.188L175.788 213.56V224H173.788V210H175.428L183.828 220.44V210H185.828Z" fill="white"/>
<path d="M263.785 213.809L263.788 213.811C267.613 216.631 272.509 218 278.393 218C281.739 218 284.814 217.521 287.606 216.549L287.612 216.547C290.4 215.558 292.667 214.167 294.365 212.347L295.08 211.581L294.28 210.903L289.152 206.553L288.458 205.964L287.807 206.599C285.778 208.578 282.914 209.626 279.079 209.626C276.63 209.626 274.686 209.077 273.181 208.051C272.073 207.282 271.317 206.345 270.887 205.224H294.464H295.464V204.224V200.996C295.464 196.068 293.831 192.142 290.481 189.366C287.19 186.618 282.736 185.304 277.238 185.304C273.554 185.304 270.231 185.965 267.289 187.309C264.362 188.64 262.065 190.566 260.436 193.093C258.807 195.6 258 198.445 258 201.597V202.363C258 207.115 259.946 210.959 263.785 213.809ZM281.704 194.936L281.704 194.936L281.711 194.942C282.562 195.612 283.069 196.542 283.185 197.834H270.97C271.36 196.645 271.972 195.737 272.78 195.066C273.863 194.186 275.307 193.706 277.202 193.706C279.285 193.706 280.74 194.162 281.704 194.936ZM326.146 194.387L337.985 183.164L342.248 185.597L343.446 186.281L343.723 184.93L345.555 175.987L345.943 175.62H345.631L347.355 167.201L347.709 165.473L346.045 166.056L324.55 173.588L322.48 174.313L324.385 175.4L327.883 177.397L316.011 189.009L316 189.02L315.99 189.03L312.943 192.195V176.62V175.62H311.943H301.109H300.109V176.62V216.453V217.453H301.109H311.943H312.943V216.453V205.547L317.448 201.872L330.32 217.098L330.62 217.453H331.084H343.977H346.169L344.732 215.797L326.146 194.387ZM358.386 217.453H359.386V216.453V186.851V185.851H358.386H347.913H346.913V186.851V216.453V217.453H347.913H358.386ZM348.266 175.454L348.266 175.453L348.257 175.46C346.993 176.396 346.299 177.658 346.299 179.191C346.299 180.747 347.009 182.021 348.302 182.956L348.302 182.956L348.311 182.962C349.61 183.881 351.252 184.295 353.15 184.295C355.044 184.295 356.677 183.883 357.956 182.959C359.271 182.029 360 180.755 360 179.191C360 177.648 359.285 176.385 357.997 175.454C356.715 174.527 355.067 174.115 353.15 174.115C351.212 174.115 349.55 174.525 348.266 175.454Z" fill="#2F6D40" stroke="#D9D9D9" stroke-width="2"/>
</svg>
