<svg width="104" height="56" viewBox="0 0 104 56" fill="none" xmlns="http://www.w3.org/2000/svg">
<path d="M6.78497 50.8087L6.78754 50.8106C10.6133 53.6315 15.5091 55 21.3933 55C24.7391 55 27.8135 54.5211 30.6061 53.5492L30.6118 53.5472C33.4004 52.5575 35.6675 51.1671 37.3647 49.3472L38.0797 48.5807L37.2803 47.9026L32.1521 43.5526L31.4584 42.9642L30.8071 43.5993C28.7778 45.5781 25.9135 46.6256 22.0795 46.6256C19.6304 46.6256 17.6867 46.0774 16.182 45.0509C15.0733 44.2824 14.3166 43.3452 13.8866 42.2238H37.4641H38.4641V41.2238V37.9955C38.4641 33.0679 36.8314 29.1424 33.481 26.3656C30.1903 23.6183 25.7356 22.3043 20.2376 22.3043C16.5542 22.3043 13.2311 22.9645 10.2887 24.3094C7.36211 25.6398 5.06514 27.566 3.43567 30.0929C1.80691 32.6004 1 35.4455 1 38.5974V39.3634C1 44.1149 2.94592 47.959 6.78497 50.8087ZM24.7036 31.9358L24.7036 31.9358L24.7109 31.9415C25.5616 32.6118 26.0688 33.5422 26.185 34.8343H13.9697C14.3596 33.6454 14.9717 32.7371 15.7802 32.0657C16.8627 31.1864 18.3072 30.7061 20.2015 30.7061C22.2853 30.7061 23.7403 31.1622 24.7036 31.9358ZM69.1464 31.3874L80.9852 20.1639L85.248 22.5973L86.4464 23.2815L86.7234 21.9296L88.5553 12.9872L88.9431 12.6195H88.6306L90.3553 4.20069L90.7092 2.47314L89.045 3.05625L67.5496 10.5878L65.4801 11.3129L67.3845 12.4L70.8833 14.3973L59.0111 26.0091L59.0004 26.0196L58.9899 26.0305L55.9433 29.1952V13.6195V12.6195H54.9433H44.1091H43.1091V13.6195V53.4528V54.4528H44.1091H54.9433H55.9433V53.4528V42.5466L60.4478 38.8718L73.3201 54.0984L73.6197 54.4528H74.0838H86.9765H89.1688L87.7317 52.7973L69.1464 31.3874ZM101.386 54.4528H102.386V53.4528V23.8514V22.8514H101.386H90.913H89.913V23.8514V53.4528V54.4528H90.913H101.386ZM91.266 12.4535L91.2659 12.4535L91.2571 12.46C89.9926 13.3957 89.299 14.6581 89.299 16.1912C89.299 17.7467 90.0088 19.021 91.3021 19.9562L91.3107 19.9624C92.6101 20.8811 94.2515 21.2949 96.1495 21.2949C98.044 21.2949 99.6774 20.8825 100.957 19.9592C102.271 19.0284 103 17.7547 103 16.1912C103 14.6483 102.285 13.3852 100.997 12.4535C99.715 11.5266 98.0667 11.1148 96.1495 11.1148C94.2117 11.1148 92.5499 11.5251 91.266 12.4535Z" fill="#2F6D40" stroke="#D9D9D9" stroke-width="2"/>
</svg>
