<?xml version="1.0" encoding="utf-8"?>
<!-- Generator: Adobe Illustrator 26.0.0, SVG Export Plug-In . SVG Version: 6.00 Build 0)  -->
<svg version="1.1" id="Layer_1" xmlns="http://www.w3.org/2000/svg" xmlns:xlink="http://www.w3.org/1999/xlink" x="0px" y="0px"
	 viewBox="0 0 312 498" style="enable-background:new 0 0 312 498;" xml:space="preserve">
<style type="text/css">
	.st0{fill:#A6A6A6;}
	.st1{fill:#2E6B3E;fill-opacity:0.5;}
	.st2{fill:#FFFFFF;}
	.st3{fill:#2F6D40;stroke:#D9D9D9;stroke-width:2;}
</style>
<circle class="st0" cx="156" cy="342" r="156"/>
<circle class="st1" cx="156" cy="156" r="156"/>
<path class="st2" d="M93.1,351c1.8,0,3.2,0.4,4.3,1.3c1,0.9,1.6,2.1,1.6,3.6c0,1.5-0.5,2.7-1.6,3.6s-2.5,1.3-4.3,1.3h-3.5v4.2h-2
	v-14H93.1z M93,359c1.3,0,2.2-0.3,2.9-0.8c0.7-0.5,1-1.3,1-2.3s-0.3-1.8-1-2.3c-0.7-0.5-1.6-0.8-2.9-0.8h-3.4v6.3H93z M111.2,365
	l-3-4.3c-0.4,0-0.7,0-0.9,0h-3.5v4.3h-2v-14h5.5c1.8,0,3.2,0.4,4.3,1.3c1,0.9,1.6,2.1,1.6,3.6c0,1.1-0.3,2-0.8,2.8
	c-0.5,0.8-1.3,1.3-2.3,1.7l3.3,4.7H111.2z M107.2,359c1.3,0,2.2-0.3,2.9-0.8c0.7-0.5,1-1.3,1-2.3s-0.3-1.8-1-2.3
	c-0.7-0.5-1.6-0.8-2.9-0.8h-3.4v6.3H107.2z M122.7,365.2c-1.4,0-2.7-0.3-3.8-0.9c-1.1-0.6-2-1.5-2.7-2.6c-0.6-1.1-1-2.3-1-3.7
	s0.3-2.6,1-3.7c0.7-1.1,1.5-1.9,2.7-2.6c1.1-0.6,2.4-0.9,3.8-0.9c1.4,0,2.7,0.3,3.8,0.9c1.1,0.6,2,1.5,2.7,2.6c0.6,1.1,1,2.3,1,3.7
	s-0.3,2.6-1,3.7c-0.6,1.1-1.5,1.9-2.7,2.6C125.3,364.9,124.1,365.2,122.7,365.2z M122.7,363.4c1,0,1.9-0.2,2.8-0.7
	c0.8-0.5,1.5-1.1,1.9-1.9c0.5-0.8,0.7-1.7,0.7-2.8s-0.2-1.9-0.7-2.7c-0.5-0.8-1.1-1.5-1.9-1.9c-0.8-0.5-1.7-0.7-2.8-0.7
	c-1,0-2,0.2-2.8,0.7c-0.8,0.5-1.5,1.1-2,1.9c-0.5,0.8-0.7,1.7-0.7,2.7s0.2,1.9,0.7,2.8c0.5,0.8,1.1,1.5,2,1.9
	C120.7,363.1,121.7,363.4,122.7,363.4z M139.4,365.2c-1.4,0-2.7-0.3-3.8-0.9c-1.1-0.6-2-1.5-2.6-2.6c-0.6-1.1-1-2.3-1-3.7
	s0.3-2.6,1-3.7c0.6-1.1,1.5-1.9,2.7-2.6c1.1-0.6,2.4-0.9,3.8-0.9c1.1,0,2.1,0.2,3,0.6c0.9,0.4,1.7,0.9,2.3,1.6l-1.3,1.3
	c-1.1-1.1-2.4-1.7-3.9-1.7c-1,0-2,0.2-2.8,0.7c-0.8,0.5-1.5,1.1-2,1.9c-0.5,0.8-0.7,1.7-0.7,2.7s0.2,1.9,0.7,2.8
	c0.5,0.8,1.1,1.5,2,1.9c0.8,0.5,1.8,0.7,2.8,0.7c1.6,0,2.9-0.6,3.9-1.7l1.3,1.3c-0.6,0.7-1.4,1.3-2.3,1.6
	C141.5,365,140.5,365.2,139.4,365.2z M157.8,363.3v1.7h-10.2v-14h9.9v1.7h-7.9v4.3h7v1.7h-7v4.5H157.8z M165.1,365.2
	c-1.1,0-2.1-0.2-3.1-0.5c-1-0.3-1.7-0.8-2.3-1.3l0.7-1.6c0.5,0.5,1.2,0.9,2,1.2c0.8,0.3,1.7,0.4,2.6,0.4c1.2,0,2-0.2,2.6-0.6
	c0.6-0.4,0.9-0.9,0.9-1.6c0-0.5-0.2-0.9-0.5-1.2c-0.3-0.3-0.7-0.5-1.2-0.7c-0.5-0.2-1.1-0.3-1.9-0.5c-1.1-0.3-1.9-0.5-2.6-0.8
	c-0.6-0.3-1.2-0.6-1.7-1.2c-0.5-0.5-0.7-1.2-0.7-2.1c0-0.7,0.2-1.4,0.6-2c0.4-0.6,1-1.1,1.8-1.4c0.8-0.4,1.8-0.5,3-0.5
	c0.8,0,1.6,0.1,2.4,0.3c0.8,0.2,1.5,0.5,2.1,0.9l-0.7,1.6c-0.6-0.4-1.2-0.7-1.9-0.8c-0.7-0.2-1.3-0.3-2-0.3c-1.1,0-2,0.2-2.6,0.6
	c-0.6,0.4-0.8,0.9-0.8,1.6c0,0.5,0.2,0.9,0.5,1.2c0.3,0.3,0.7,0.5,1.2,0.7c0.5,0.2,1.1,0.3,1.9,0.5c1.1,0.3,1.9,0.5,2.5,0.8
	c0.6,0.3,1.2,0.6,1.6,1.2c0.5,0.5,0.7,1.2,0.7,2.1c0,0.7-0.2,1.4-0.6,2c-0.4,0.6-1,1.1-1.8,1.4C167.3,365,166.3,365.2,165.1,365.2z
	 M177.5,365.2c-1.1,0-2.1-0.2-3.1-0.5c-1-0.3-1.7-0.8-2.3-1.3l0.7-1.6c0.5,0.5,1.2,0.9,2,1.2c0.8,0.3,1.7,0.4,2.6,0.4
	c1.2,0,2-0.2,2.6-0.6c0.6-0.4,0.9-0.9,0.9-1.6c0-0.5-0.2-0.9-0.5-1.2c-0.3-0.3-0.7-0.5-1.2-0.7c-0.5-0.2-1.1-0.3-1.9-0.5
	c-1.1-0.3-1.9-0.5-2.6-0.8c-0.6-0.3-1.2-0.6-1.7-1.2c-0.5-0.5-0.7-1.2-0.7-2.1c0-0.7,0.2-1.4,0.6-2c0.4-0.6,1-1.1,1.8-1.4
	c0.8-0.4,1.8-0.5,3-0.5c0.8,0,1.6,0.1,2.4,0.3c0.8,0.2,1.5,0.5,2.1,0.9l-0.7,1.6c-0.6-0.4-1.2-0.7-1.9-0.8c-0.7-0.2-1.3-0.3-2-0.3
	c-1.1,0-2,0.2-2.6,0.6c-0.6,0.4-0.8,0.9-0.8,1.6c0,0.5,0.2,0.9,0.5,1.2c0.3,0.3,0.7,0.5,1.2,0.7c0.5,0.2,1.1,0.3,1.9,0.5
	c1.1,0.3,1.9,0.5,2.5,0.8c0.6,0.3,1.2,0.6,1.6,1.2c0.5,0.5,0.7,1.2,0.7,2.1c0,0.7-0.2,1.4-0.6,2c-0.4,0.6-1,1.1-1.8,1.4
	C179.7,365,178.7,365.2,177.5,365.2z M192.2,365.2c-1.4,0-2.7-0.3-3.8-0.9c-1.1-0.6-2-1.5-2.7-2.6c-0.6-1.1-1-2.3-1-3.7
	s0.3-2.6,1-3.7c0.7-1.1,1.5-1.9,2.7-2.6c1.1-0.6,2.4-0.9,3.8-0.9c1.4,0,2.7,0.3,3.8,0.9c1.1,0.6,2,1.5,2.7,2.6c0.6,1.1,1,2.3,1,3.7
	s-0.3,2.6-1,3.7c-0.6,1.1-1.5,1.9-2.7,2.6C194.8,364.9,193.6,365.2,192.2,365.2z M192.2,363.4c1,0,1.9-0.2,2.8-0.7
	c0.8-0.5,1.5-1.1,1.9-1.9c0.5-0.8,0.7-1.7,0.7-2.8s-0.2-1.9-0.7-2.7c-0.5-0.8-1.1-1.5-1.9-1.9c-0.8-0.5-1.7-0.7-2.8-0.7
	c-1,0-2,0.2-2.8,0.7c-0.8,0.5-1.5,1.1-2,1.9c-0.5,0.8-0.7,1.7-0.7,2.7s0.2,1.9,0.7,2.8c0.5,0.8,1.1,1.5,2,1.9
	C190.2,363.1,191.1,363.4,192.2,363.4z M212,365l-3-4.3c-0.4,0-0.7,0-0.9,0h-3.5v4.3h-2v-14h5.5c1.8,0,3.2,0.4,4.3,1.3
	c1,0.9,1.6,2.1,1.6,3.6c0,1.1-0.3,2-0.8,2.8c-0.5,0.8-1.3,1.3-2.3,1.7l3.3,4.7H212z M208.1,359c1.3,0,2.2-0.3,2.9-0.8
	c0.7-0.5,1-1.3,1-2.3s-0.3-1.8-1-2.3c-0.7-0.5-1.6-0.8-2.9-0.8h-3.4v6.3H208.1z M221.3,365.2c-1.1,0-2.1-0.2-3.1-0.5
	c-1-0.3-1.7-0.8-2.3-1.3l0.7-1.6c0.5,0.5,1.2,0.9,2,1.2c0.8,0.3,1.7,0.4,2.6,0.4c1.2,0,2-0.2,2.6-0.6c0.6-0.4,0.9-0.9,0.9-1.6
	c0-0.5-0.2-0.9-0.5-1.2c-0.3-0.3-0.7-0.5-1.2-0.7c-0.5-0.2-1.1-0.3-1.9-0.5c-1.1-0.3-1.9-0.5-2.6-0.8c-0.6-0.3-1.2-0.6-1.7-1.2
	c-0.5-0.5-0.7-1.2-0.7-2.1c0-0.7,0.2-1.4,0.6-2c0.4-0.6,1-1.1,1.8-1.4c0.8-0.4,1.8-0.5,3-0.5c0.8,0,1.6,0.1,2.4,0.3
	c0.8,0.2,1.5,0.5,2.1,0.9l-0.7,1.6c-0.6-0.4-1.2-0.7-1.9-0.8c-0.7-0.2-1.3-0.3-2-0.3c-1.1,0-2,0.2-2.6,0.6c-0.6,0.4-0.8,0.9-0.8,1.6
	c0,0.5,0.2,0.9,0.5,1.2c0.3,0.3,0.7,0.5,1.2,0.7c0.5,0.2,1.1,0.3,1.9,0.5c1.1,0.3,1.9,0.5,2.5,0.8c0.6,0.3,1.2,0.6,1.6,1.2
	c0.5,0.5,0.7,1.2,0.7,2.1c0,0.7-0.2,1.4-0.6,2c-0.4,0.6-1,1.1-1.8,1.4C223.5,365,222.5,365.2,221.3,365.2z M77.2,389l0-10.2
	l-5.1,8.5h-0.9l-5.1-8.4V389h-1.9v-14h1.6l5.8,9.8l5.8-9.8h1.6l0,14H77.2z M92.2,385.5h-7.4l-1.5,3.5h-2.1l6.3-14h2l6.4,14h-2.1
	L92.2,385.5z M91.5,383.9l-3-6.9l-3,6.9H91.5z M110,375v14h-1.6l-8.4-10.4V389h-2v-14h1.6l8.4,10.4V375H110z M120,389.2
	c-1.9,0-3.3-0.5-4.4-1.6c-1-1.1-1.6-2.6-1.6-4.6v-8h2v7.9c0,3,1.3,4.5,3.9,4.5c1.3,0,2.3-0.4,2.9-1.1c0.7-0.7,1-1.9,1-3.4V375h1.9v8
	c0,2-0.5,3.6-1.6,4.6C123.3,388.6,121.9,389.2,120,389.2z M132,376.7v4.9h7v1.7h-7v5.7h-2v-14h9.9v1.7H132z M151,385.5h-7.4L142,389
	h-2.1l6.3-14h2l6.4,14h-2.1L151,385.5z M150.3,383.9l-3-6.9l-3,6.9H150.3z M162.8,389.2c-1.4,0-2.7-0.3-3.8-0.9
	c-1.1-0.6-2-1.5-2.6-2.6c-0.6-1.1-1-2.3-1-3.7s0.3-2.6,1-3.7c0.6-1.1,1.5-1.9,2.7-2.6c1.1-0.6,2.4-0.9,3.8-0.9c1.1,0,2.1,0.2,3,0.6
	c0.9,0.4,1.7,0.9,2.3,1.6l-1.3,1.3c-1.1-1.1-2.4-1.7-3.9-1.7c-1,0-2,0.2-2.8,0.7c-0.8,0.5-1.5,1.1-2,1.9c-0.5,0.8-0.7,1.7-0.7,2.7
	s0.2,1.9,0.7,2.8c0.5,0.8,1.1,1.5,2,1.9c0.8,0.5,1.8,0.7,2.8,0.7c1.6,0,2.9-0.6,3.9-1.7l1.3,1.3c-0.6,0.7-1.4,1.3-2.3,1.6
	C164.9,389,163.9,389.2,162.8,389.2z M173.6,376.7h-4.8V375h11.6v1.7h-4.8V389h-2V376.7z M188.1,389.2c-1.9,0-3.3-0.5-4.4-1.6
	c-1-1.1-1.6-2.6-1.6-4.6v-8h2v7.9c0,3,1.3,4.5,3.9,4.5c1.3,0,2.3-0.4,2.9-1.1c0.7-0.7,1-1.9,1-3.4V375h1.9v8c0,2-0.5,3.6-1.6,4.6
	C191.4,388.6,190,389.2,188.1,389.2z M207.5,389l-3-4.3c-0.4,0-0.7,0-0.9,0h-3.5v4.3h-2v-14h5.5c1.8,0,3.2,0.4,4.3,1.3
	c1,0.9,1.6,2.1,1.6,3.6c0,1.1-0.3,2-0.8,2.8c-0.5,0.8-1.3,1.3-2.3,1.7l3.3,4.7H207.5z M203.5,383c1.3,0,2.2-0.3,2.9-0.8
	c0.7-0.5,1-1.3,1-2.3s-0.3-1.8-1-2.3c-0.7-0.5-1.6-0.8-2.9-0.8h-3.4v6.3H203.5z M222.8,387.3v1.7h-10.2v-14h9.9v1.7h-7.9v4.3h7v1.7
	h-7v4.5H222.8z M235.4,389l-3-4.3c-0.4,0-0.7,0-0.9,0H228v4.3h-2v-14h5.5c1.8,0,3.2,0.4,4.3,1.3c1,0.9,1.6,2.1,1.6,3.6
	c0,1.1-0.3,2-0.8,2.8c-0.5,0.8-1.3,1.3-2.3,1.7l3.3,4.7H235.4z M231.4,383c1.3,0,2.2-0.3,2.9-0.8c0.7-0.5,1-1.3,1-2.3
	s-0.3-1.8-1-2.3c-0.7-0.5-1.6-0.8-2.9-0.8H228v6.3H231.4z M244.7,389.2c-1.1,0-2.1-0.2-3.1-0.5c-1-0.3-1.7-0.8-2.3-1.3l0.7-1.6
	c0.5,0.5,1.2,0.9,2,1.2c0.8,0.3,1.7,0.4,2.6,0.4c1.2,0,2-0.2,2.6-0.6c0.6-0.4,0.9-0.9,0.9-1.6c0-0.5-0.2-0.9-0.5-1.2
	c-0.3-0.3-0.7-0.5-1.2-0.7c-0.5-0.2-1.1-0.3-1.9-0.5c-1.1-0.3-1.9-0.5-2.6-0.8c-0.6-0.3-1.2-0.6-1.7-1.2c-0.5-0.5-0.7-1.2-0.7-2.1
	c0-0.7,0.2-1.4,0.6-2c0.4-0.6,1-1.1,1.8-1.4c0.8-0.4,1.8-0.5,3-0.5c0.8,0,1.6,0.1,2.4,0.3c0.8,0.2,1.5,0.5,2.1,0.9l-0.7,1.6
	c-0.6-0.4-1.2-0.7-1.9-0.8c-0.7-0.2-1.3-0.3-2-0.3c-1.1,0-2,0.2-2.6,0.6c-0.6,0.4-0.8,0.9-0.8,1.6c0,0.5,0.2,0.9,0.5,1.2
	c0.3,0.3,0.7,0.5,1.2,0.7c0.5,0.2,1.1,0.3,1.9,0.5c1.1,0.3,1.9,0.5,2.5,0.8c0.6,0.3,1.2,0.6,1.6,1.2c0.5,0.5,0.7,1.2,0.7,2.1
	c0,0.7-0.2,1.4-0.6,2c-0.4,0.6-1,1.1-1.8,1.4C246.8,389,245.8,389.2,244.7,389.2z M111.9,413l-3-4.3c-0.4,0-0.7,0-0.9,0h-3.5v4.3h-2
	v-14h5.5c1.8,0,3.2,0.4,4.3,1.3c1,0.9,1.6,2.1,1.6,3.6c0,1.1-0.3,2-0.8,2.8c-0.5,0.8-1.3,1.3-2.3,1.7l3.3,4.7H111.9z M108,407
	c1.3,0,2.2-0.3,2.9-0.8c0.7-0.5,1-1.3,1-2.3s-0.3-1.8-1-2.3c-0.7-0.5-1.6-0.8-2.9-0.8h-3.4v6.3H108z M127.3,411.3v1.7h-10.2v-14h9.9
	v1.7h-7.9v4.3h7v1.7h-7v4.5H127.3z M133.3,400.7h-4.8V399h11.6v1.7h-4.8V413h-2V400.7z M150.5,409.5H143l-1.5,3.5h-2.1l6.3-14h2
	l6.4,14H152L150.5,409.5z M149.8,407.9l-3-6.9l-3,6.9H149.8z M156.2,399h2v14h-2V399z M162.4,399h2v12.3h7.6v1.7h-9.6V399z
	 M184.4,411.3v1.7h-10.2v-14h9.9v1.7h-7.9v4.3h7v1.7h-7v4.5H184.4z M197,413l-3-4.3c-0.4,0-0.7,0-0.9,0h-3.5v4.3h-2v-14h5.5
	c1.8,0,3.2,0.4,4.3,1.3c1,0.9,1.6,2.1,1.6,3.6c0,1.1-0.3,2-0.8,2.8c-0.5,0.8-1.3,1.3-2.3,1.7l3.3,4.7H197z M193.1,407
	c1.3,0,2.2-0.3,2.9-0.8c0.7-0.5,1-1.3,1-2.3s-0.3-1.8-1-2.3c-0.7-0.5-1.6-0.8-2.9-0.8h-3.4v6.3H193.1z M206.3,413.2
	c-1.1,0-2.1-0.2-3.1-0.5c-1-0.3-1.7-0.8-2.3-1.3l0.7-1.6c0.5,0.5,1.2,0.9,2,1.2c0.8,0.3,1.7,0.4,2.6,0.4c1.2,0,2-0.2,2.6-0.6
	c0.6-0.4,0.9-0.9,0.9-1.6c0-0.5-0.2-0.9-0.5-1.2c-0.3-0.3-0.7-0.5-1.2-0.7c-0.5-0.2-1.1-0.3-1.9-0.5c-1.1-0.3-1.9-0.5-2.6-0.8
	c-0.6-0.3-1.2-0.6-1.7-1.2c-0.5-0.5-0.7-1.2-0.7-2.1c0-0.7,0.2-1.4,0.6-2c0.4-0.6,1-1.1,1.8-1.4c0.8-0.4,1.8-0.5,3-0.5
	c0.8,0,1.6,0.1,2.4,0.3c0.8,0.2,1.5,0.5,2.1,0.9l-0.7,1.6c-0.6-0.4-1.2-0.7-1.9-0.8c-0.7-0.2-1.3-0.3-2-0.3c-1.1,0-2,0.2-2.6,0.6
	c-0.6,0.4-0.8,0.9-0.8,1.6c0,0.5,0.2,0.9,0.5,1.2c0.3,0.3,0.7,0.5,1.2,0.7c0.5,0.2,1.1,0.3,1.9,0.5c1.1,0.3,1.9,0.5,2.5,0.8
	c0.6,0.3,1.2,0.6,1.6,1.2c0.5,0.5,0.7,1.2,0.7,2.1c0,0.7-0.2,1.4-0.6,2c-0.4,0.6-1,1.1-1.8,1.4C208.5,413,207.5,413.2,206.3,413.2z"
	/>
<path class="st2" d="M109.8,86.7v4.9h7v1.7h-7V99h-2V85h9.9v1.7H109.8z M128.7,95.5h-7.4l-1.5,3.5h-2.1l6.3-14h2l6.4,14h-2.1
	L128.7,95.5z M128,93.9l-3-6.9l-3,6.9H128z M143.8,99l-3-4.3c-0.4,0-0.7,0-0.9,0h-3.5V99h-2V85h5.5c1.8,0,3.2,0.4,4.3,1.3
	c1,0.9,1.6,2.1,1.6,3.6c0,1.1-0.3,2-0.8,2.8c-0.5,0.8-1.3,1.3-2.3,1.7L146,99H143.8z M139.9,93c1.3,0,2.2-0.3,2.9-0.8
	c0.7-0.5,1-1.3,1-2.3c0-1-0.3-1.8-1-2.3c-0.7-0.5-1.6-0.8-2.9-0.8h-3.4V93H139.9z M162,99l0-10.2l-5.1,8.5H156l-5.1-8.4V99H149V85
	h1.6l5.8,9.8l5.8-9.8h1.6l0,14H162z M178.2,97.3V99h-10.2V85h9.9v1.7h-7.9V91h7v1.7h-7v4.5H178.2z M190.8,99l-3-4.3
	c-0.4,0-0.7,0-0.9,0h-3.5V99h-2V85h5.5c1.8,0,3.2,0.4,4.3,1.3c1,0.9,1.6,2.1,1.6,3.6c0,1.1-0.3,2-0.8,2.8c-0.5,0.8-1.3,1.3-2.3,1.7
	L193,99H190.8z M186.9,93c1.3,0,2.2-0.3,2.9-0.8c0.7-0.5,1-1.3,1-2.3c0-1-0.3-1.8-1-2.3c-0.7-0.5-1.6-0.8-2.9-0.8h-3.4V93H186.9z
	 M200.1,99.2c-1.1,0-2.1-0.2-3.1-0.5c-1-0.3-1.7-0.8-2.3-1.3l0.7-1.6c0.5,0.5,1.2,0.9,2,1.2c0.8,0.3,1.7,0.4,2.6,0.4
	c1.2,0,2-0.2,2.6-0.6c0.6-0.4,0.9-0.9,0.9-1.6c0-0.5-0.2-0.9-0.5-1.2c-0.3-0.3-0.7-0.5-1.2-0.7c-0.5-0.2-1.1-0.3-1.9-0.5
	c-1.1-0.3-1.9-0.5-2.6-0.8c-0.6-0.3-1.2-0.6-1.7-1.2c-0.5-0.5-0.7-1.2-0.7-2.1c0-0.7,0.2-1.4,0.6-2c0.4-0.6,1-1.1,1.8-1.4
	c0.8-0.4,1.8-0.5,3-0.5c0.8,0,1.6,0.1,2.4,0.3c0.8,0.2,1.5,0.5,2.1,0.9l-0.7,1.6c-0.6-0.4-1.2-0.7-1.9-0.8c-0.7-0.2-1.3-0.3-2-0.3
	c-1.1,0-2,0.2-2.6,0.6c-0.6,0.4-0.8,0.9-0.8,1.6c0,0.5,0.2,0.9,0.5,1.2c0.3,0.3,0.7,0.5,1.2,0.7c0.5,0.2,1.1,0.3,1.9,0.5
	c1.1,0.3,1.9,0.5,2.5,0.8c0.6,0.3,1.2,0.6,1.6,1.2c0.5,0.5,0.7,1.2,0.7,2.1c0,0.7-0.2,1.4-0.6,2c-0.4,0.6-1,1.1-1.8,1.4
	C202.3,99,201.3,99.2,200.1,99.2z M83.6,123.2c-1.4,0-2.7-0.3-3.8-0.9c-1.1-0.6-2-1.5-2.6-2.6c-0.6-1.1-1-2.3-1-3.7s0.3-2.6,1-3.7
	c0.6-1.1,1.5-1.9,2.7-2.6c1.1-0.6,2.4-0.9,3.8-0.9c1.1,0,2.1,0.2,3,0.6c0.9,0.4,1.7,0.9,2.3,1.6l-1.3,1.3c-1.1-1.1-2.4-1.7-3.9-1.7
	c-1,0-2,0.2-2.8,0.7c-0.8,0.5-1.5,1.1-2,1.9c-0.5,0.8-0.7,1.7-0.7,2.7s0.2,1.9,0.7,2.8c0.5,0.8,1.1,1.5,2,1.9
	c0.8,0.5,1.8,0.7,2.8,0.7c1.6,0,2.9-0.6,3.9-1.7L89,121c-0.6,0.7-1.4,1.3-2.3,1.6C85.7,123,84.7,123.2,83.6,123.2z M97.9,123.2
	c-1.4,0-2.7-0.3-3.8-0.9c-1.1-0.6-2-1.5-2.7-2.6c-0.6-1.1-1-2.3-1-3.7s0.3-2.6,1-3.7c0.7-1.1,1.5-1.9,2.7-2.6
	c1.1-0.6,2.4-0.9,3.8-0.9c1.4,0,2.7,0.3,3.8,0.9c1.1,0.6,2,1.5,2.7,2.6c0.6,1.1,1,2.3,1,3.7s-0.3,2.6-1,3.7
	c-0.6,1.1-1.5,1.9-2.7,2.6C100.5,122.9,99.3,123.2,97.9,123.2z M97.9,121.4c1,0,1.9-0.2,2.8-0.7c0.8-0.5,1.5-1.1,1.9-1.9
	c0.5-0.8,0.7-1.7,0.7-2.8s-0.2-1.9-0.7-2.7c-0.5-0.8-1.1-1.5-1.9-1.9c-0.8-0.5-1.7-0.7-2.8-0.7c-1,0-2,0.2-2.8,0.7
	c-0.8,0.5-1.5,1.1-2,1.9c-0.5,0.8-0.7,1.7-0.7,2.7s0.2,1.9,0.7,2.8c0.5,0.8,1.1,1.5,2,1.9C95.9,121.1,96.8,121.4,97.9,121.4z
	 M114.7,123.2c-1.4,0-2.7-0.3-3.8-0.9c-1.1-0.6-2-1.5-2.7-2.6c-0.6-1.1-1-2.3-1-3.7s0.3-2.6,1-3.7c0.7-1.1,1.5-1.9,2.7-2.6
	c1.1-0.6,2.4-0.9,3.8-0.9c1.4,0,2.7,0.3,3.8,0.9c1.1,0.6,2,1.5,2.7,2.6c0.6,1.1,1,2.3,1,3.7s-0.3,2.6-1,3.7
	c-0.6,1.1-1.5,1.9-2.7,2.6C117.3,122.9,116.1,123.2,114.7,123.2z M114.7,121.4c1,0,1.9-0.2,2.8-0.7c0.8-0.5,1.5-1.1,1.9-1.9
	c0.5-0.8,0.7-1.7,0.7-2.8s-0.2-1.9-0.7-2.7c-0.5-0.8-1.1-1.5-1.9-1.9c-0.8-0.5-1.7-0.7-2.8-0.7s-2,0.2-2.8,0.7
	c-0.8,0.5-1.5,1.1-2,1.9c-0.5,0.8-0.7,1.7-0.7,2.7s0.2,1.9,0.7,2.8c0.5,0.8,1.1,1.5,2,1.9C112.7,121.1,113.6,121.4,114.7,121.4z
	 M130.6,109c1.8,0,3.2,0.4,4.3,1.3c1,0.9,1.6,2.1,1.6,3.6c0,1.5-0.5,2.7-1.6,3.6c-1,0.9-2.5,1.3-4.3,1.3h-3.5v4.2h-2v-14H130.6z
	 M130.5,117c1.3,0,2.2-0.3,2.9-0.8c0.7-0.5,1-1.3,1-2.3s-0.3-1.8-1-2.3c-0.7-0.5-1.6-0.8-2.9-0.8h-3.4v6.3H130.5z M149.5,121.3v1.7
	h-10.2v-14h9.9v1.7h-7.9v4.3h7v1.7h-7v4.5H149.5z M162.1,123l-3-4.3c-0.4,0-0.7,0-0.9,0h-3.5v4.3h-2v-14h5.5c1.8,0,3.2,0.4,4.3,1.3
	c1,0.9,1.6,2.1,1.6,3.6c0,1.1-0.3,2-0.8,2.8c-0.5,0.8-1.3,1.3-2.3,1.7l3.3,4.7H162.1z M158.2,117c1.3,0,2.2-0.3,2.9-0.8
	c0.7-0.5,1-1.3,1-2.3s-0.3-1.8-1-2.3c-0.7-0.5-1.6-0.8-2.9-0.8h-3.4v6.3H158.2z M176.2,119.5h-7.4l-1.5,3.5h-2.1l6.3-14h2l6.4,14
	h-2.1L176.2,119.5z M175.5,117.9l-3-6.9l-3,6.9H175.5z M184,110.7h-4.8V109h11.6v1.7H186V123h-2V110.7z M193,109h2v14h-2V109z
	 M211.2,109l-6.1,14h-2l-6.2-14h2.2l5,11.5l5.1-11.5H211.2z M223.2,121.3v1.7H213v-14h9.9v1.7H215v4.3h7v1.7h-7v4.5H223.2z
	 M230.5,123.2c-1.1,0-2.1-0.2-3.1-0.5c-1-0.3-1.7-0.8-2.3-1.3l0.7-1.6c0.5,0.5,1.2,0.9,2,1.2c0.8,0.3,1.7,0.4,2.6,0.4
	c1.2,0,2-0.2,2.6-0.6c0.6-0.4,0.9-0.9,0.9-1.6c0-0.5-0.2-0.9-0.5-1.2c-0.3-0.3-0.7-0.5-1.2-0.7c-0.5-0.2-1.1-0.3-1.9-0.5
	c-1.1-0.3-1.9-0.5-2.6-0.8c-0.6-0.3-1.2-0.6-1.7-1.2c-0.5-0.5-0.7-1.2-0.7-2.1c0-0.7,0.2-1.4,0.6-2c0.4-0.6,1-1.1,1.8-1.4
	c0.8-0.4,1.8-0.5,3-0.5c0.8,0,1.6,0.1,2.4,0.3c0.8,0.2,1.5,0.5,2.1,0.9l-0.7,1.6c-0.6-0.4-1.2-0.7-1.9-0.8c-0.7-0.2-1.3-0.3-2-0.3
	c-1.1,0-2,0.2-2.6,0.6c-0.6,0.4-0.8,0.9-0.8,1.6c0,0.5,0.2,0.9,0.5,1.2c0.3,0.3,0.7,0.5,1.2,0.7c0.5,0.2,1.1,0.3,1.9,0.5
	c1.1,0.3,1.9,0.5,2.5,0.8s1.2,0.6,1.6,1.2c0.5,0.5,0.7,1.2,0.7,2.1c0,0.7-0.2,1.4-0.6,2c-0.4,0.6-1,1.1-1.8,1.4
	C232.7,123,231.7,123.2,230.5,123.2z M96.1,143.5h-7.4l-1.5,3.5h-2.1l6.3-14h2l6.4,14h-2.1L96.1,143.5z M95.4,141.9l-3-6.9l-3,6.9
	H95.4z M105.9,147.2c-1.1,0-2.1-0.2-3.1-0.5c-1-0.3-1.7-0.8-2.3-1.3l0.7-1.6c0.5,0.5,1.2,0.9,2,1.2c0.8,0.3,1.7,0.4,2.6,0.4
	c1.2,0,2-0.2,2.6-0.6c0.6-0.4,0.9-0.9,0.9-1.6c0-0.5-0.2-0.9-0.5-1.2c-0.3-0.3-0.7-0.5-1.2-0.7c-0.5-0.2-1.1-0.3-1.9-0.5
	c-1.1-0.3-1.9-0.5-2.6-0.8c-0.6-0.3-1.2-0.6-1.7-1.2c-0.5-0.5-0.7-1.2-0.7-2.1c0-0.7,0.2-1.4,0.6-2c0.4-0.6,1-1.1,1.8-1.4
	c0.8-0.4,1.8-0.5,3-0.5c0.8,0,1.6,0.1,2.4,0.3c0.8,0.2,1.5,0.5,2.1,0.9l-0.7,1.6c-0.6-0.4-1.2-0.7-1.9-0.8c-0.7-0.2-1.3-0.3-2-0.3
	c-1.1,0-2,0.2-2.6,0.6c-0.6,0.4-0.8,0.9-0.8,1.6c0,0.5,0.2,0.9,0.5,1.2c0.3,0.3,0.7,0.5,1.2,0.7c0.5,0.2,1.1,0.3,1.9,0.5
	c1.1,0.3,1.9,0.5,2.5,0.8c0.6,0.3,1.2,0.6,1.6,1.2c0.5,0.5,0.7,1.2,0.7,2.1c0,0.7-0.2,1.4-0.6,2c-0.4,0.6-1,1.1-1.8,1.4
	C108.1,147,107.1,147.2,105.9,147.2z M118.3,147.2c-1.1,0-2.1-0.2-3.1-0.5c-1-0.3-1.7-0.8-2.3-1.3l0.7-1.6c0.5,0.5,1.2,0.9,2,1.2
	c0.8,0.3,1.7,0.4,2.6,0.4c1.2,0,2-0.2,2.6-0.6c0.6-0.4,0.9-0.9,0.9-1.6c0-0.5-0.2-0.9-0.5-1.2c-0.3-0.3-0.7-0.5-1.2-0.7
	c-0.5-0.2-1.1-0.3-1.9-0.5c-1.1-0.3-1.9-0.5-2.6-0.8c-0.6-0.3-1.2-0.6-1.7-1.2c-0.5-0.5-0.7-1.2-0.7-2.1c0-0.7,0.2-1.4,0.6-2
	c0.4-0.6,1-1.1,1.8-1.4c0.8-0.4,1.8-0.5,3-0.5c0.8,0,1.6,0.1,2.4,0.3s1.5,0.5,2.1,0.9l-0.7,1.6c-0.6-0.4-1.2-0.7-1.9-0.8
	c-0.7-0.2-1.3-0.3-2-0.3c-1.1,0-2,0.2-2.6,0.6c-0.6,0.4-0.8,0.9-0.8,1.6c0,0.5,0.2,0.9,0.5,1.2c0.3,0.3,0.7,0.5,1.2,0.7
	c0.5,0.2,1.1,0.3,1.9,0.5c1.1,0.3,1.9,0.5,2.5,0.8c0.6,0.3,1.2,0.6,1.6,1.2c0.5,0.5,0.7,1.2,0.7,2.1c0,0.7-0.2,1.4-0.6,2
	c-0.4,0.6-1,1.1-1.8,1.4C120.5,147,119.5,147.2,118.3,147.2z M133,147.2c-1.4,0-2.7-0.3-3.8-0.9c-1.1-0.6-2-1.5-2.7-2.6
	c-0.6-1.1-1-2.3-1-3.7s0.3-2.6,1-3.7c0.7-1.1,1.5-1.9,2.7-2.6c1.1-0.6,2.4-0.9,3.8-0.9c1.4,0,2.7,0.3,3.8,0.9c1.1,0.6,2,1.5,2.7,2.6
	c0.6,1.1,1,2.3,1,3.7s-0.3,2.6-1,3.7c-0.6,1.1-1.5,1.9-2.7,2.6C135.7,146.9,134.4,147.2,133,147.2z M133,145.4c1,0,1.9-0.2,2.8-0.7
	c0.8-0.5,1.5-1.1,1.9-1.9c0.5-0.8,0.7-1.7,0.7-2.8s-0.2-1.9-0.7-2.7c-0.5-0.8-1.1-1.5-1.9-1.9c-0.8-0.5-1.7-0.7-2.8-0.7
	c-1,0-2,0.2-2.8,0.7c-0.8,0.5-1.5,1.1-2,1.9c-0.5,0.8-0.7,1.7-0.7,2.7s0.2,1.9,0.7,2.8c0.5,0.8,1.1,1.5,2,1.9
	C131,145.1,132,145.4,133,145.4z M149.7,147.2c-1.4,0-2.7-0.3-3.8-0.9c-1.1-0.6-2-1.5-2.6-2.6c-0.6-1.1-1-2.3-1-3.7s0.3-2.6,1-3.7
	c0.6-1.1,1.5-1.9,2.7-2.6c1.1-0.6,2.4-0.9,3.8-0.9c1.1,0,2.1,0.2,3,0.6c0.9,0.4,1.7,0.9,2.3,1.6l-1.3,1.3c-1.1-1.1-2.4-1.7-3.9-1.7
	c-1,0-2,0.2-2.8,0.7c-0.8,0.5-1.5,1.1-2,1.9c-0.5,0.8-0.7,1.7-0.7,2.7s0.2,1.9,0.7,2.8c0.5,0.8,1.1,1.5,2,1.9
	c0.8,0.5,1.8,0.7,2.8,0.7c1.6,0,2.9-0.6,3.9-1.7l1.3,1.3c-0.6,0.7-1.4,1.3-2.3,1.6C151.8,147,150.8,147.2,149.7,147.2z M157.9,133h2
	v14h-2V133z M173,143.5h-7.4l-1.5,3.5H162l6.3-14h2l6.4,14h-2.1L173,143.5z M172.3,141.9l-3-6.9l-3,6.9H172.3z M180.8,134.7H176V133
	h11.6v1.7h-4.8V147h-2V134.7z M189.8,133h2v14h-2V133z M202.3,147.2c-1.4,0-2.7-0.3-3.8-0.9c-1.1-0.6-2-1.5-2.7-2.6
	c-0.6-1.1-1-2.3-1-3.7s0.3-2.6,1-3.7c0.7-1.1,1.5-1.9,2.7-2.6c1.1-0.6,2.4-0.9,3.8-0.9c1.4,0,2.7,0.3,3.8,0.9c1.1,0.6,2,1.5,2.7,2.6
	c0.6,1.1,1,2.3,1,3.7s-0.3,2.6-1,3.7c-0.6,1.1-1.5,1.9-2.7,2.6C205,146.9,203.7,147.2,202.3,147.2z M202.3,145.4
	c1,0,1.9-0.2,2.8-0.7c0.8-0.5,1.5-1.1,1.9-1.9c0.5-0.8,0.7-1.7,0.7-2.8s-0.2-1.9-0.7-2.7c-0.5-0.8-1.1-1.5-1.9-1.9
	c-0.8-0.5-1.7-0.7-2.8-0.7c-1,0-2,0.2-2.8,0.7c-0.8,0.5-1.5,1.1-2,1.9c-0.5,0.8-0.7,1.7-0.7,2.7s0.2,1.9,0.7,2.8
	c0.5,0.8,1.1,1.5,2,1.9C200.4,145.1,201.3,145.4,202.3,145.4z M224.8,133v14h-1.6l-8.4-10.4V147h-2v-14h1.6l8.4,10.4V133H224.8z"/>
<path class="st3" d="M110.8,271.1L110.8,271.1c3.8,2.8,8.7,4.2,14.6,4.2c3.3,0,6.4-0.5,9.2-1.5l0,0c2.8-1,5.1-2.4,6.8-4.2l0.7-0.8
	l-0.8-0.7l-5.1-4.3l-0.7-0.6l-0.7,0.6c-2,2-4.9,3-8.7,3c-2.4,0-4.4-0.5-5.9-1.6c-1.1-0.8-1.9-1.7-2.3-2.8h23.6h1v-1v-3.2
	c0-4.9-1.6-8.9-5-11.6c-3.3-2.7-7.7-4.1-13.2-4.1c-3.7,0-7,0.7-9.9,2c-2.9,1.3-5.2,3.3-6.9,5.8c-1.6,2.5-2.4,5.4-2.4,8.5v0.8
	C105,264.4,106.9,268.2,110.8,271.1z M128.7,252.2L128.7,252.2L128.7,252.2c0.9,0.7,1.4,1.6,1.5,2.9H118c0.4-1.2,1-2.1,1.8-2.8
	c1.1-0.9,2.5-1.4,4.4-1.4C126.3,251,127.7,251.4,128.7,252.2z M173.1,251.7l11.8-11.2l4.3,2.4l1.2,0.7l0.3-1.4l1.8-8.9l0.4-0.4h-0.3
	l1.7-8.4l0.4-1.7l-1.7,0.6l-21.5,7.5l-2.1,0.7l1.9,1.1l3.5,2L163,246.3l0,0l0,0l-3,3.2v-15.6v-1h-1h-10.8h-1v1v39.8v1h1h10.8h1v-1
	v-10.9l4.5-3.7l12.9,15.2l0.3,0.4h0.5H191h2.2l-1.4-1.7L173.1,251.7z M205.4,274.7h1v-1v-29.6v-1h-1h-10.5h-1v1v29.6v1h1H205.4z
	 M195.3,232.7L195.3,232.7L195.3,232.7c-1.3,0.9-2,2.2-2,3.7c0,1.6,0.7,2.8,2,3.8l0,0c1.3,0.9,2.9,1.3,4.8,1.3
	c1.9,0,3.5-0.4,4.8-1.3c1.3-0.9,2-2.2,2-3.8c0-1.5-0.7-2.8-2-3.7c-1.3-0.9-2.9-1.3-4.8-1.3C198.2,231.4,196.5,231.8,195.3,232.7z"/>
</svg>
